<?xml version="1.0" encoding="utf-8"?>
<!-- Generator: Adobe Illustrator 19.0.0, SVG Export Plug-In . SVG Version: 6.00 Build 0)  -->
<svg version="1.1" id="Layer_1" xmlns="http://www.w3.org/2000/svg" xmlns:xlink="http://www.w3.org/1999/xlink" x="0px" y="0px"
	 viewBox="-742 82.6 555.8 60.8" style="enable-background:new -742 82.6 555.8 60.8;" xml:space="preserve">
<style type="text/css">
	.st0{fill:#FFFFFF;}
	.st1{fill:#F58333;}
</style>
<g id="XMLID_16_">
	<path id="XMLID_17_" class="st0" d="M-729.7,92.2c6.2,0,10.5,3.4,11.8,9.2h-8c-0.6-1.7-1.8-2.8-3.9-2.8c-2.7,0-4.5,2.1-4.5,6.2
		c0,4.1,1.8,6.2,4.5,6.2c2.1,0,3.3-1,3.9-2.8h8c-1.3,5.7-5.6,9.2-11.8,9.2c-7.2,0-12.3-4.8-12.3-12.6
		C-742,97.1-736.9,92.2-729.7,92.2z"/>
	<path id="XMLID_19_" class="st0" d="M-704.6,92.2c3.7,0,6.2,1.7,7.6,3.8v-3.5h7.5v24.6h-7.5v-3.5c-1.4,2.2-4,3.8-7.6,3.8
		c-6,0-10.8-4.9-10.8-12.7C-715.4,97-710.6,92.2-704.6,92.2z M-702.4,98.7c-2.8,0-5.4,2.1-5.4,6c0,3.9,2.6,6.1,5.4,6.1
		c2.9,0,5.4-2.2,5.4-6.1C-697,100.9-699.5,98.7-702.4,98.7z"/>
	<path id="XMLID_22_" class="st0" d="M-676.5,117.1h-7.5V92.5h7.5v4.1c1.7-2.6,4.4-4.4,7.7-4.4v8h-2.1c-3.6,0-5.6,1.2-5.6,5.5V117.1
		z"/>
	<path id="XMLID_24_" class="st0" d="M-655.8,92.2c3.7,0,6.2,1.7,7.6,3.8v-3.5h7.5v24.6h-7.5v-3.5c-1.4,2.2-4,3.8-7.6,3.8
		c-6,0-10.8-4.9-10.8-12.7C-666.7,97-661.9,92.2-655.8,92.2z M-653.6,98.7c-2.8,0-5.4,2.1-5.4,6c0,3.9,2.6,6.1,5.4,6.1
		c2.9,0,5.4-2.2,5.4-6.1C-648.3,100.9-650.8,98.7-653.6,98.7z"/>
	<path id="XMLID_27_" class="st0" d="M-629.6,92.5l5.3,17.5l5.3-17.5h8l-8.7,24.6h-9.3l-8.7-24.6H-629.6z"/>
	<path id="XMLID_29_" class="st0" d="M-598.4,92.2c3.7,0,6.2,1.7,7.6,3.8v-3.5h7.5v24.6h-7.5v-3.5c-1.4,2.2-4,3.8-7.6,3.8
		c-6,0-10.8-4.9-10.8-12.7C-609.3,97-604.5,92.2-598.4,92.2z M-596.2,98.7c-2.8,0-5.4,2.1-5.4,6c0,3.9,2.6,6.1,5.4,6.1
		c2.9,0,5.4-2.2,5.4-6.1C-590.9,100.9-593.4,98.7-596.2,98.7z"/>
	<path id="XMLID_32_" class="st0" d="M-560.9,103.8c0-3.3-1.8-5.2-4.7-5.2c-2.9,0-4.7,1.8-4.7,5.2v13.3h-7.5V92.5h7.5v3.3
		c1.5-2.1,4.1-3.5,7.4-3.5c5.7,0,9.5,3.9,9.5,10.5v14.3h-7.5V103.8z"/>
	<path id="XMLID_34_" class="st0" d="M-538.2,117.4c-6.6,0-11-3.7-11.3-8.4h7.4c0.2,1.7,1.7,2.9,3.8,2.9c1.9,0,2.9-0.9,2.9-2
		c0-4-13.4-1.1-13.4-10.1c0-4.2,3.6-7.6,10-7.6c6.3,0,9.9,3.5,10.3,8.4h-7c-0.2-1.7-1.5-2.8-3.6-2.8c-1.8,0-2.7,0.7-2.7,1.9
		c0,3.9,13.3,1.1,13.4,10.3C-528.3,114.2-532.1,117.4-538.2,117.4z"/>
	<path id="XMLID_36_" class="st0" d="M-522.9,98.8h-2.7v-6.3h2.7v-0.7c0-6.4,4-9.6,11.4-9.2V89c-2.9-0.2-3.9,0.7-3.9,3.3v0.2h4v6.2
		h-4V117h-7.5V98.8z"/>
	<path id="XMLID_38_" class="st0" d="M-496.7,117.4c-7.2,0-12.7-4.8-12.7-12.6s5.6-12.6,12.8-12.6c7.2,0,12.8,4.8,12.8,12.6
		S-489.4,117.4-496.7,117.4z M-496.7,110.9c2.7,0,5.2-2,5.2-6.1c0-4.2-2.5-6.1-5.1-6.1c-2.7,0-5.1,1.9-5.1,6.1
		C-501.7,108.9-499.4,110.9-496.7,110.9z"/>
	<path id="XMLID_41_" class="st0" d="M-472.3,117.1h-7.5V92.5h7.5v4.1c1.7-2.6,4.4-4.4,7.7-4.4v8h-2.1c-3.6,0-5.6,1.2-5.6,5.5V117.1
		z"/>
	<path id="XMLID_43_" class="st0" d="M-451,117.4c-6.6,0-11-3.7-11.3-8.4h7.4c0.2,1.7,1.7,2.9,3.8,2.9c1.9,0,2.9-0.9,2.9-2
		c0-4-13.4-1.1-13.4-10.1c0-4.2,3.6-7.6,10-7.6c6.3,0,9.9,3.5,10.3,8.4h-7c-0.2-1.7-1.5-2.8-3.6-2.8c-1.8,0-2.7,0.7-2.7,1.9
		c0,3.9,13.3,1.1,13.4,10.3C-441,114.2-444.8,117.4-451,117.4z"/>
	<path id="XMLID_45_" class="st0" d="M-427.1,92.2c3.7,0,6.2,1.7,7.6,3.8v-3.5h7.5v24.6h-7.5v-3.5c-1.4,2.2-4,3.8-7.6,3.8
		c-6,0-10.8-4.9-10.8-12.7C-437.9,97-433.1,92.2-427.1,92.2z M-424.9,98.7c-2.8,0-5.4,2.1-5.4,6c0,3.9,2.6,6.1,5.4,6.1
		c2.9,0,5.4-2.2,5.4-6.1C-419.5,100.9-422,98.7-424.9,98.7z"/>
	<path id="XMLID_48_" class="st0" d="M-406.5,84.5h7.5v32.6h-7.5V84.5z"/>
	<path id="XMLID_50_" class="st0" d="M-382.7,117.4c-7.2,0-12.4-4.8-12.4-12.6s5.1-12.6,12.4-12.6c7.2,0,12.2,4.8,12.2,12.2
		c0,0.7,0,1.5-0.1,2.2h-17c0.3,3.2,2.2,4.7,4.7,4.7c2.1,0,3.3-1.1,3.9-2.4h8C-372.2,113.7-376.5,117.4-382.7,117.4z M-387.5,102.4
		h9.4c0-2.7-2.1-4.2-4.6-4.2S-387.1,99.7-387.5,102.4z"/>
	<path id="XMLID_53_" class="st1" d="M-362.9,117.4c-2.7,0-4.5-1.8-4.5-4c0-2.3,1.8-4.1,4.5-4.1c2.6,0,4.4,1.8,4.4,4.1
		C-358.5,115.6-360.3,117.4-362.9,117.4z"/>
	<path id="XMLID_55_" class="st1" d="M-343.2,92.2c6.2,0,10.5,3.4,11.8,9.2h-8c-0.6-1.7-1.8-2.8-3.9-2.8c-2.7,0-4.5,2.1-4.5,6.2
		c0,4.1,1.8,6.2,4.5,6.2c2.1,0,3.3-1,3.9-2.8h8c-1.3,5.7-5.6,9.2-11.8,9.2c-7.2,0-12.3-4.8-12.3-12.6
		C-355.6,97.1-350.4,92.2-343.2,92.2z"/>
	<path id="XMLID_57_" class="st1" d="M-316.3,117.4c-7.2,0-12.7-4.8-12.7-12.6s5.6-12.6,12.8-12.6c7.2,0,12.8,4.8,12.8,12.6
		S-309,117.4-316.3,117.4z M-316.3,110.9c2.7,0,5.2-2,5.2-6.1c0-4.2-2.5-6.1-5.1-6.1c-2.7,0-5.1,1.9-5.1,6.1
		C-321.3,108.9-319,110.9-316.3,110.9z"/>
	<path id="XMLID_60_" class="st1" d="M-265.6,103.8c0-3.2-1.8-5-4.7-5s-4.7,1.8-4.7,5v13.3h-7.5v-13.3c0-3.2-1.8-5-4.7-5
		s-4.7,1.8-4.7,5v13.3h-7.5V92.5h7.5v3.1c1.5-2,4-3.3,7.2-3.3c3.7,0,6.7,1.6,8.4,4.6c1.6-2.6,4.7-4.6,8.3-4.6c6.1,0,10,3.9,10,10.5
		v14.3h-7.5L-265.6,103.8L-265.6,103.8z"/>
	<path id="XMLID_62_" class="st0" d="M-249.3,117.4c-2.7,0-4.5-1.8-4.5-4c0-2.3,1.8-4.1,4.5-4.1c2.6,0,4.4,1.8,4.4,4.1
		C-244.8,115.6-246.7,117.4-249.3,117.4z"/>
	<path id="XMLID_64_" class="st0" d="M-231.1,92.2c3.7,0,6.2,1.7,7.6,3.8v-3.5h7.5v24.6h-7.5v-3.5c-1.4,2.2-4,3.8-7.6,3.8
		c-6,0-10.8-4.9-10.8-12.7C-241.9,97-237.1,92.2-231.1,92.2z M-228.9,98.7c-2.8,0-5.4,2.1-5.4,6c0,3.9,2.6,6.1,5.4,6.1
		c2.9,0,5.4-2.2,5.4-6.1C-223.5,100.9-226,98.7-228.9,98.7z"/>
	<path id="XMLID_67_" class="st0" d="M-186.3,117.1h-7.5v-3.3c-1.5,2.1-4.1,3.6-7.4,3.6c-5.7,0-9.5-3.9-9.5-10.5V92.5h7.5v13.3
		c0,3.3,1.9,5.2,4.7,5.2c2.9,0,4.8-1.8,4.8-5.2V92.5h7.5L-186.3,117.1L-186.3,117.1z"/>
</g>
<g>
	<path class="st0" d="M-406.1,124.6h2.6l-0.8,4.3l-0.4,1.4h0.2c0.3-0.4,0.8-0.8,1.3-1.1c0.6-0.3,1.2-0.4,2-0.4
		c0.6,0,1.2,0.1,1.7,0.4c0.5,0.3,1,0.6,1.3,1.1c0.4,0.5,0.6,1,0.7,1.7c0.1,0.6,0.1,1.4,0,2.1c-0.1,0.8-0.4,1.5-0.8,2.1
		c-0.4,0.6-0.8,1.2-1.3,1.7c-0.5,0.5-1.1,0.8-1.7,1.1c-0.6,0.3-1.2,0.4-1.9,0.4c-0.8,0-1.4-0.1-1.8-0.4c-0.5-0.3-0.8-0.7-0.9-1.1
		h-0.2l-0.2,1.2h-2.5L-406.1,124.6z M-403.2,136.9c0.4,0,0.7-0.1,1-0.2c0.3-0.1,0.7-0.3,0.9-0.6c0.3-0.2,0.5-0.5,0.7-0.9
		c0.2-0.3,0.3-0.7,0.4-1.2c0.1-0.4,0.1-0.8,0-1.2c-0.1-0.3-0.2-0.6-0.4-0.9c-0.2-0.2-0.4-0.4-0.7-0.6c-0.3-0.1-0.6-0.2-1-0.2
		c-0.3,0-0.7,0.1-1,0.2c-0.3,0.1-0.6,0.3-0.9,0.6c-0.3,0.2-0.5,0.5-0.7,0.9c-0.2,0.4-0.4,0.7-0.4,1.2c-0.1,0.4-0.1,0.8,0,1.2
		c0.1,0.4,0.2,0.6,0.4,0.9c0.2,0.2,0.4,0.4,0.7,0.6C-403.8,136.9-403.5,136.9-403.2,136.9z"/>
	<path class="st0" d="M-393.8,138.6l-2.5-9.4h3l1.4,6h0.1l3.5-6h2.9l-8.7,14.2h-2.8L-393.8,138.6z"/>
	<path class="st0" d="M-368.4,136.7c-0.9,0.9-1.8,1.5-2.9,2c-1,0.5-2.2,0.7-3.4,0.7c-1.1,0-2-0.2-2.9-0.6c-0.9-0.4-1.6-0.9-2.1-1.6
		c-0.6-0.7-0.9-1.5-1.2-2.4c-0.2-0.9-0.2-1.9-0.1-3c0.2-1.1,0.6-2.1,1.1-3c0.6-0.9,1.2-1.7,2-2.4c0.8-0.7,1.7-1.2,2.7-1.6
		c1-0.4,2-0.6,3.1-0.6c1.2,0,2.1,0.2,2.9,0.6c0.8,0.4,1.5,1,2,1.8l-2.2,1.9c-0.3-0.5-0.8-0.9-1.3-1.2c-0.5-0.3-1.1-0.4-1.9-0.4
		c-0.7,0-1.3,0.1-2,0.4c-0.6,0.2-1.2,0.6-1.7,1s-0.9,0.9-1.3,1.6c-0.4,0.6-0.6,1.3-0.7,2c-0.1,0.8-0.1,1.4,0,2
		c0.1,0.6,0.4,1.1,0.8,1.6c0.4,0.4,0.8,0.8,1.4,1c0.5,0.2,1.2,0.4,1.8,0.4c0.8,0,1.6-0.2,2.2-0.5c0.7-0.3,1.3-0.8,1.9-1.4
		L-368.4,136.7z"/>
	<path class="st0" d="M-361.1,138h-0.2c-0.4,0.4-0.8,0.7-1.3,1c-0.5,0.3-1.1,0.4-1.8,0.4c-0.5,0-1-0.1-1.4-0.3
		c-0.4-0.2-0.8-0.4-1.1-0.7c-0.3-0.3-0.5-0.7-0.6-1.1s-0.1-0.9,0-1.4c0.1-0.5,0.3-1,0.5-1.4c0.3-0.4,0.6-0.8,1-1.1
		c0.4-0.3,0.9-0.5,1.4-0.7s1.1-0.2,1.6-0.2c0.6,0,1.2,0.1,1.6,0.2c0.4,0.1,0.7,0.2,1,0.3l0.1-0.3c0.1-0.5,0-1-0.4-1.3
		c-0.4-0.3-0.8-0.5-1.5-0.5c-0.9,0-1.8,0.4-2.5,1.1l-1.7-1.3c1.3-1.3,2.8-2,4.6-2c1.5,0,2.6,0.4,3.3,1.1c0.7,0.7,0.9,1.8,0.6,3.2
		l-1,5.9h-2.6L-361.1,138z M-360.6,135c-0.3-0.1-0.6-0.3-0.9-0.4c-0.3-0.1-0.7-0.1-1.1-0.1c-0.6,0-1.1,0.1-1.5,0.4s-0.6,0.6-0.7,1
		c-0.1,0.4,0,0.7,0.3,1c0.3,0.2,0.6,0.4,1.1,0.4c0.3,0,0.7-0.1,1-0.2c0.3-0.1,0.6-0.3,0.8-0.5c0.2-0.2,0.4-0.5,0.6-0.7
		C-360.8,135.6-360.7,135.3-360.6,135z"/>
	<path class="st0" d="M-354.9,129.2h2.5l-0.2,1.4h0.2c0.2-0.2,0.4-0.5,0.6-0.7s0.5-0.4,0.8-0.5c0.3-0.2,0.6-0.3,0.9-0.4
		c0.3-0.1,0.6-0.1,0.9-0.1c0.3,0,0.6,0,0.9,0.1c0.2,0.1,0.4,0.2,0.6,0.3l-1.1,2.4c-0.1-0.1-0.3-0.1-0.5-0.2c-0.2,0-0.4-0.1-0.7-0.1
		c-0.4,0-0.7,0.1-1,0.2c-0.3,0.1-0.6,0.3-0.9,0.6c-0.3,0.3-0.5,0.6-0.6,0.9c-0.2,0.3-0.3,0.7-0.4,1.1l-0.9,4.9h-2.6L-354.9,129.2z"
		/>
	<path class="st0" d="M-342.6,138h-0.2c-0.4,0.4-0.8,0.7-1.3,1c-0.5,0.3-1.1,0.4-1.8,0.4c-0.5,0-1-0.1-1.4-0.3
		c-0.4-0.2-0.8-0.4-1.1-0.7c-0.3-0.3-0.5-0.7-0.6-1.1s-0.1-0.9,0-1.4c0.1-0.5,0.3-1,0.5-1.4c0.3-0.4,0.6-0.8,1-1.1
		c0.4-0.3,0.9-0.5,1.4-0.7c0.5-0.2,1.1-0.2,1.6-0.2c0.6,0,1.2,0.1,1.6,0.2c0.4,0.1,0.7,0.2,1,0.3l0.1-0.3c0.1-0.5,0-1-0.4-1.3
		c-0.4-0.3-0.8-0.5-1.5-0.5c-0.9,0-1.8,0.4-2.5,1.1l-1.7-1.3c1.3-1.3,2.8-2,4.6-2c1.5,0,2.6,0.4,3.3,1.1c0.7,0.7,0.9,1.8,0.6,3.2
		l-1,5.9h-2.6L-342.6,138z M-342,135c-0.3-0.1-0.6-0.3-0.9-0.4c-0.3-0.1-0.7-0.1-1.1-0.1c-0.6,0-1.1,0.1-1.5,0.4s-0.6,0.6-0.7,1
		s0,0.7,0.3,1c0.3,0.2,0.6,0.4,1.1,0.4c0.3,0,0.7-0.1,1-0.2c0.3-0.1,0.6-0.3,0.8-0.5c0.2-0.2,0.4-0.5,0.6-0.7
		C-342.2,135.6-342.1,135.3-342,135z"/>
	<path class="st0" d="M-337.5,129.2h3l1.4,6.3h0.1l3.6-6.3h3l-6,9.9h-2.6L-337.5,129.2z"/>
	<path class="st0" d="M-320.9,138h-0.2c-0.4,0.4-0.8,0.7-1.3,1c-0.5,0.3-1.1,0.4-1.8,0.4c-0.5,0-1-0.1-1.4-0.3
		c-0.4-0.2-0.8-0.4-1.1-0.7c-0.3-0.3-0.5-0.7-0.6-1.1s-0.1-0.9,0-1.4c0.1-0.5,0.3-1,0.5-1.4c0.3-0.4,0.6-0.8,1-1.1
		c0.4-0.3,0.9-0.5,1.4-0.7s1.1-0.2,1.6-0.2c0.6,0,1.2,0.1,1.6,0.2c0.4,0.1,0.7,0.2,1,0.3l0.1-0.3c0.1-0.5,0-1-0.4-1.3
		c-0.4-0.3-0.8-0.5-1.5-0.5c-0.9,0-1.8,0.4-2.5,1.1l-1.7-1.3c1.3-1.3,2.8-2,4.6-2c1.5,0,2.6,0.4,3.3,1.1c0.7,0.7,0.9,1.8,0.6,3.2
		l-1,5.9h-2.6L-320.9,138z M-320.4,135c-0.3-0.1-0.6-0.3-0.9-0.4c-0.3-0.1-0.7-0.1-1.1-0.1c-0.6,0-1.1,0.1-1.5,0.4s-0.6,0.6-0.7,1
		c-0.1,0.4,0,0.7,0.3,1c0.3,0.2,0.6,0.4,1.1,0.4c0.3,0,0.7-0.1,1-0.2c0.3-0.1,0.6-0.3,0.8-0.5c0.2-0.2,0.4-0.5,0.6-0.7
		C-320.6,135.6-320.5,135.3-320.4,135z"/>
	<path class="st0" d="M-312.4,130.5h0.2c0.4-0.5,0.9-0.9,1.5-1.2c0.6-0.3,1.2-0.4,1.9-0.4c0.6,0,1.1,0.1,1.6,0.3
		c0.4,0.2,0.8,0.5,1,0.9c0.2,0.4,0.4,0.8,0.5,1.3c0.1,0.5,0,1.1-0.1,1.7l-1.1,6h-2.6l1-5.7c0.1-0.7,0.1-1.2-0.2-1.6
		c-0.3-0.3-0.7-0.5-1.3-0.5c-0.4,0-0.7,0.1-1,0.2c-0.3,0.2-0.6,0.4-0.8,0.6c-0.2,0.3-0.4,0.6-0.6,0.9c-0.2,0.4-0.3,0.7-0.4,1.1
		l-0.9,4.8h-2.6l1.7-9.9h2.5L-312.4,130.5z"/>
	<path class="st0" d="M-297.6,124.6h2.7l3.1,7.6h0.2l5.8-7.6h2.7l-2.5,14.4h-2.7l1.3-7.1l0.6-2.4h-0.2l-4.8,6.5h-1.6l-2.5-6.5h-0.2
		l-0.3,2.4l-1.3,7.1h-2.7L-297.6,124.6z"/>
	<path class="st0" d="M-277.2,138h-0.2c-0.4,0.4-0.8,0.7-1.3,1c-0.5,0.3-1.1,0.4-1.8,0.4c-0.5,0-1-0.1-1.4-0.3
		c-0.4-0.2-0.8-0.4-1.1-0.7c-0.3-0.3-0.5-0.7-0.6-1.1s-0.1-0.9,0-1.4c0.1-0.5,0.3-1,0.5-1.4c0.3-0.4,0.6-0.8,1-1.1
		c0.4-0.3,0.9-0.5,1.4-0.7c0.5-0.2,1.1-0.2,1.6-0.2c0.6,0,1.2,0.1,1.6,0.2c0.4,0.1,0.7,0.2,1,0.3l0.1-0.3c0.1-0.5,0-1-0.4-1.3
		c-0.4-0.3-0.8-0.5-1.5-0.5c-0.9,0-1.8,0.4-2.5,1.1l-1.7-1.3c1.3-1.3,2.8-2,4.6-2c1.5,0,2.6,0.4,3.3,1.1c0.7,0.7,0.9,1.8,0.6,3.2
		l-1,5.9h-2.6L-277.2,138z M-276.7,135c-0.3-0.1-0.6-0.3-0.9-0.4c-0.3-0.1-0.7-0.1-1.1-0.1c-0.6,0-1.1,0.1-1.5,0.4s-0.6,0.6-0.7,1
		c-0.1,0.4,0,0.7,0.3,1c0.3,0.2,0.6,0.4,1.1,0.4c0.3,0,0.7-0.1,1-0.2c0.3-0.1,0.6-0.3,0.8-0.5c0.2-0.2,0.4-0.5,0.6-0.7
		C-276.8,135.6-276.7,135.3-276.7,135z"/>
	<path class="st0" d="M-270.9,129.2h2.5l-0.2,1.4h0.2c0.2-0.2,0.4-0.5,0.6-0.7s0.5-0.4,0.8-0.5c0.3-0.2,0.6-0.3,0.9-0.4
		c0.3-0.1,0.6-0.1,0.9-0.1c0.3,0,0.6,0,0.9,0.1c0.2,0.1,0.4,0.2,0.6,0.3l-1.1,2.4c-0.1-0.1-0.3-0.1-0.5-0.2c-0.2,0-0.4-0.1-0.7-0.1
		c-0.4,0-0.7,0.1-1,0.2s-0.6,0.3-0.9,0.6s-0.5,0.6-0.6,0.9c-0.2,0.3-0.3,0.7-0.4,1.1l-0.9,4.9h-2.6L-270.9,129.2z"/>
	<path class="st0" d="M-261.8,124.6h2.6l-1.4,7.9h0.1l3.9-3.3h3.3l0,0.2l-4.3,3.6l2.9,6l0,0.2h-3.1l-1.9-4.3l-1.4,1.1l-0.6,3.2h-2.6
		L-261.8,124.6z"/>
	<path class="st0" d="M-244.2,136.7c-0.6,0.8-1.3,1.5-2.2,2c-0.9,0.5-1.8,0.7-3,0.7c-0.8,0-1.4-0.1-2-0.4c-0.6-0.3-1.1-0.6-1.5-1.1
		c-0.4-0.5-0.7-1-0.8-1.7c-0.1-0.6-0.2-1.3,0-2.1c0.1-0.7,0.4-1.4,0.7-2c0.4-0.6,0.8-1.2,1.4-1.7c0.5-0.5,1.1-0.9,1.8-1.1
		s1.4-0.4,2.1-0.4c0.8,0,1.5,0.1,2,0.4c0.6,0.3,1,0.6,1.4,1.1c0.3,0.5,0.6,1,0.7,1.6s0.1,1.3,0,2.1c0,0.1,0,0.2,0,0.2
		c0,0.1,0,0.2-0.1,0.2c0,0.1,0,0.1-0.1,0.2h-7.4c0,0.4,0,0.7,0.1,1c0.1,0.3,0.3,0.5,0.5,0.7c0.2,0.2,0.5,0.3,0.7,0.4
		c0.3,0.1,0.6,0.1,0.9,0.1c0.6,0,1.1-0.1,1.6-0.4c0.4-0.3,0.8-0.6,1.1-1L-244.2,136.7z M-245.9,132.8c0-0.2,0-0.4-0.1-0.6
		c-0.1-0.2-0.2-0.4-0.3-0.6c-0.2-0.2-0.4-0.3-0.6-0.5c-0.3-0.1-0.6-0.2-1-0.2c-0.6,0-1.1,0.2-1.6,0.5c-0.5,0.3-0.9,0.8-1.1,1.4
		H-245.9z"/>
	<path class="st0" d="M-240.7,131.4h-1.7l0.4-2.3h1.7l0.5-3h2.6l-0.5,3h2.4l-0.4,2.3h-2.4l-0.7,3.9c0,0.2-0.1,0.5,0,0.7
		c0,0.2,0.1,0.4,0.2,0.5c0.1,0.2,0.4,0.3,0.7,0.3c0.2,0,0.4,0,0.6-0.1c0.1,0,0.3-0.1,0.4-0.2l0.3,2.3c-0.3,0.1-0.7,0.3-1.1,0.3
		s-0.8,0.1-1.2,0.1c-0.5,0-0.9-0.1-1.3-0.2c-0.4-0.2-0.7-0.4-0.9-0.6c-0.5-0.6-0.7-1.5-0.5-2.6L-240.7,131.4z"/>
	<path class="st0" d="M-233.2,129.2h2.5l-0.2,1.2h0.2c0.3-0.4,0.8-0.8,1.3-1.1c0.6-0.3,1.2-0.4,2-0.4c0.6,0,1.2,0.1,1.7,0.4
		c0.5,0.3,1,0.6,1.3,1.1c0.4,0.5,0.6,1,0.7,1.7s0.1,1.4,0,2.1c-0.1,0.8-0.4,1.5-0.8,2.1c-0.4,0.6-0.8,1.2-1.3,1.7
		c-0.5,0.5-1.1,0.8-1.7,1.1c-0.6,0.3-1.2,0.4-1.9,0.4c-0.8,0-1.4-0.1-1.8-0.4c-0.5-0.3-0.8-0.7-0.9-1.1h-0.2l-0.1,1.4l-0.7,4.1h-2.6
		L-233.2,129.2z M-229.5,136.9c0.3,0,0.7-0.1,1-0.2c0.3-0.1,0.7-0.3,0.9-0.6c0.3-0.2,0.5-0.5,0.7-0.9c0.2-0.3,0.4-0.7,0.4-1.2
		c0.1-0.4,0.1-0.8,0-1.2c-0.1-0.3-0.2-0.6-0.4-0.9c-0.2-0.2-0.4-0.4-0.7-0.6c-0.3-0.1-0.6-0.2-1-0.2s-0.7,0.1-1,0.2
		c-0.3,0.1-0.7,0.3-0.9,0.6c-0.3,0.2-0.5,0.5-0.7,0.9c-0.2,0.4-0.4,0.7-0.4,1.2c-0.1,0.4-0.1,0.8,0,1.2c0.1,0.4,0.2,0.6,0.4,0.9
		c0.2,0.2,0.4,0.4,0.7,0.6C-230.2,136.9-229.8,136.9-229.5,136.9z"/>
	<path class="st0" d="M-223.1,139l2.5-14.4h2.6l-2.5,14.4H-223.1z"/>
	<path class="st0" d="M-212,138h-0.2c-0.4,0.4-0.8,0.7-1.3,1c-0.5,0.3-1.1,0.4-1.8,0.4c-0.5,0-1-0.1-1.4-0.3
		c-0.4-0.2-0.8-0.4-1.1-0.7c-0.3-0.3-0.5-0.7-0.6-1.1s-0.1-0.9,0-1.4c0.1-0.5,0.3-1,0.5-1.4c0.3-0.4,0.6-0.8,1-1.1
		c0.4-0.3,0.9-0.5,1.4-0.7c0.5-0.2,1.1-0.2,1.6-0.2c0.6,0,1.2,0.1,1.6,0.2c0.4,0.1,0.7,0.2,1,0.3l0.1-0.3c0.1-0.5,0-1-0.4-1.3
		c-0.4-0.3-0.8-0.5-1.5-0.5c-0.9,0-1.8,0.4-2.5,1.1l-1.7-1.3c1.3-1.3,2.8-2,4.6-2c1.5,0,2.6,0.4,3.3,1.1c0.7,0.7,0.9,1.8,0.6,3.2
		l-1,5.9h-2.6L-212,138z M-211.5,135c-0.3-0.1-0.6-0.3-0.9-0.4c-0.3-0.1-0.7-0.1-1.1-0.1c-0.6,0-1.1,0.1-1.5,0.4s-0.6,0.6-0.7,1
		s0,0.7,0.3,1c0.3,0.2,0.6,0.4,1.1,0.4c0.3,0,0.7-0.1,1-0.2c0.3-0.1,0.6-0.3,0.8-0.5c0.2-0.2,0.4-0.5,0.6-0.7
		C-211.7,135.6-211.5,135.3-211.5,135z"/>
	<path class="st0" d="M-197.8,136.5c-0.6,0.8-1.3,1.5-2.2,2c-0.9,0.5-1.9,0.8-3,0.8c-0.8,0-1.4-0.1-2-0.4c-0.6-0.3-1.1-0.6-1.5-1.1
		c-0.4-0.5-0.6-1-0.8-1.7c-0.1-0.6-0.2-1.3,0-2.1c0.1-0.8,0.4-1.5,0.8-2.1c0.4-0.6,0.8-1.2,1.4-1.7c0.5-0.5,1.2-0.8,1.8-1.1
		s1.4-0.4,2.2-0.4c1.1,0,2.1,0.3,2.7,0.8c0.7,0.5,1.1,1.2,1.4,2l-2.6,1c-0.1-0.5-0.4-0.8-0.7-1c-0.3-0.2-0.7-0.4-1.3-0.4
		c-0.3,0-0.7,0.1-1,0.2c-0.3,0.1-0.6,0.3-0.9,0.6c-0.3,0.2-0.5,0.5-0.7,0.9c-0.2,0.4-0.3,0.7-0.4,1.2c-0.1,0.4-0.1,0.8,0,1.2
		c0.1,0.4,0.2,0.6,0.4,0.9c0.2,0.2,0.4,0.4,0.7,0.6c0.3,0.1,0.6,0.2,1,0.2c0.6,0,1-0.1,1.5-0.4c0.4-0.2,0.8-0.6,1.1-1.1
		L-197.8,136.5z"/>
	<path class="st0" d="M-186.9,136.7c-0.6,0.8-1.3,1.5-2.2,2c-0.9,0.5-1.8,0.7-3,0.7c-0.8,0-1.4-0.1-2-0.4c-0.6-0.3-1.1-0.6-1.5-1.1
		c-0.4-0.5-0.7-1-0.8-1.7c-0.1-0.6-0.2-1.3,0-2.1c0.1-0.7,0.4-1.4,0.7-2c0.4-0.6,0.8-1.2,1.4-1.7c0.5-0.5,1.1-0.9,1.8-1.1
		c0.7-0.3,1.4-0.4,2.1-0.4c0.8,0,1.5,0.1,2,0.4c0.6,0.3,1,0.6,1.4,1.1c0.3,0.5,0.6,1,0.7,1.6s0.1,1.3,0,2.1c0,0.1,0,0.2,0,0.2
		c0,0.1,0,0.2-0.1,0.2c0,0.1,0,0.1-0.1,0.2h-7.4c0,0.4,0,0.7,0.1,1c0.1,0.3,0.3,0.5,0.5,0.7c0.2,0.2,0.5,0.3,0.7,0.4
		c0.3,0.1,0.6,0.1,0.9,0.1c0.6,0,1.1-0.1,1.6-0.4c0.4-0.3,0.8-0.6,1.1-1L-186.9,136.7z M-188.7,132.8c0-0.2,0-0.4-0.1-0.6
		c-0.1-0.2-0.2-0.4-0.3-0.6c-0.2-0.2-0.4-0.3-0.6-0.5c-0.3-0.1-0.6-0.2-1-0.2c-0.6,0-1.1,0.2-1.6,0.5c-0.5,0.3-0.9,0.8-1.1,1.4
		H-188.7z"/>
</g>
</svg>
