<svg viewBox="0 0 24 24" xmlns="http://www.w3.org/2000/svg">
<path d="M2.20052 20.25V5.25C2.20052 4.7 2.39635 4.22917 2.78802 3.8375C3.17968 3.44583 3.65052 3.25 4.20052 3.25H16.2005C16.7505 3.25 17.2213 3.44583 17.613 3.8375C18.0047 4.22917 18.2005 4.7 18.2005 5.25V10.325C18.0338 10.2917 17.8672 10.2708 17.7005 10.2625C17.5338 10.2542 17.3672 10.25 17.2005 10.25C17.0338 10.25 16.8672 10.2542 16.7005 10.2625C16.5338 10.2708 16.3672 10.2917 16.2005 10.325V5.25H4.20052V15.25H11.2755C11.2422 15.4167 11.2213 15.5833 11.213 15.75C11.2047 15.9167 11.2005 16.0833 11.2005 16.25C11.2005 16.4167 11.2047 16.5833 11.213 16.75C11.2213 16.9167 11.2422 17.0833 11.2755 17.25H5.20052L2.20052 20.25ZM6.20052 9.25H14.2005V7.25H6.20052V9.25ZM6.20052 13.25H11.2005V11.25H6.20052V13.25Z" />
<path d="M17.2995 20.75C17.2995 18.2647 15.2849 16.2502 12.7995 16.2502C15.2849 16.2502 17.2995 14.2353 17.2995 11.75C17.2995 14.2353 19.3141 16.2498 21.7995 16.2498C19.3141 16.2498 17.2995 18.2647 17.2995 20.75Z" />
</svg>
