<svg viewBox="0 0 24 24" xmlns="http://www.w3.org/2000/svg">
<path d="M10.6 16.5922L17.65 9.54219L16.25 8.14219L10.6 13.7922L7.75 10.9422L6.35 12.3422L10.6 16.5922ZM12 21.9922C10.6167 21.9922 9.31667 21.7297 8.1 21.2047C6.88333 20.6797 5.825 19.9672 4.925 19.0672C4.025 18.1672 3.3125 17.1089 2.7875 15.8922C2.2625 14.6755 2 13.3755 2 11.9922C2 10.6089 2.2625 9.30885 2.7875 8.09219C3.3125 6.87552 4.025 5.81719 4.925 4.91719C5.825 4.01719 6.88333 3.30469 8.1 2.77969C9.31667 2.25469 10.6167 1.99219 12 1.99219C13.3833 1.99219 14.6833 2.25469 15.9 2.77969C17.1167 3.30469 18.175 4.01719 19.075 4.91719C19.975 5.81719 20.6875 6.87552 21.2125 8.09219C21.7375 9.30885 22 10.6089 22 11.9922C22 13.3755 21.7375 14.6755 21.2125 15.8922C20.6875 17.1089 19.975 18.1672 19.075 19.0672C18.175 19.9672 17.1167 20.6797 15.9 21.2047C14.6833 21.7297 13.3833 21.9922 12 21.9922Z" />
</svg>
