<svg viewBox="0 0 24 24" xmlns="http://www.w3.org/2000/svg" width="50" height="50">
<path d="M12 16.9961C12.2833 16.9961 12.5208 16.9003 12.7125 16.7086C12.9042 16.5169 13 16.2794 13 15.9961C13 15.7128 12.9042 15.4753 12.7125 15.2836C12.5208 15.0919 12.2833 14.9961 12 14.9961C11.7167 14.9961 11.4792 15.0919 11.2875 15.2836C11.0958 15.4753 11 15.7128 11 15.9961C11 16.2794 11.0958 16.5169 11.2875 16.7086C11.4792 16.9003 11.7167 16.9961 12 16.9961ZM11 12.9961H13V6.99609H11V12.9961ZM12 21.9961C10.6167 21.9961 9.31667 21.7336 8.1 21.2086C6.88333 20.6836 5.825 19.9711 4.925 19.0711C4.025 18.1711 3.3125 17.1128 2.7875 15.8961C2.2625 14.6794 2 13.3794 2 11.9961C2 10.6128 2.2625 9.31276 2.7875 8.09609C3.3125 6.87943 4.025 5.82109 4.925 4.92109C5.825 4.02109 6.88333 3.30859 8.1 2.78359C9.31667 2.25859 10.6167 1.99609 12 1.99609C13.3833 1.99609 14.6833 2.25859 15.9 2.78359C17.1167 3.30859 18.175 4.02109 19.075 4.92109C19.975 5.82109 20.6875 6.87943 21.2125 8.09609C21.7375 9.31276 22 10.6128 22 11.9961C22 13.3794 21.7375 14.6794 21.2125 15.8961C20.6875 17.1128 19.975 18.1711 19.075 19.0711C18.175 19.9711 17.1167 20.6836 15.9 21.2086C14.6833 21.7336 13.3833 21.9961 12 21.9961Z"></path>
</svg>
