<svg viewBox="0 0 24 25" xmlns="http://www.w3.org/2000/svg" width="18" height="18">
<path d="M14.6728 8.02781L15.8498 9.20473L19.969 5.08551C20.1357 4.91878 20.2191 4.72263 20.2191 4.49705C20.2191 4.27147 20.1357 4.07532 19.969 3.90859C19.8023 3.74186 19.6061 3.65849 19.3805 3.65849C19.1549 3.65849 18.9588 3.74186 18.7921 3.90859L14.6728 8.02781ZM8.78824 6.85089L17.0267 15.0893L18.2036 13.9124L9.96516 5.67397L8.78824 6.85089ZM4.40421 9.52839L5.84593 10.9701L7.02285 9.7932C7.18958 9.62646 7.38574 9.5431 7.61131 9.5431C7.83689 9.5431 8.03304 9.62646 8.19978 9.7932C8.36651 9.95993 8.44987 10.1561 8.44987 10.3817C8.44987 10.6072 8.36651 10.8034 8.19978 10.9701L7.02285 12.147L8.78824 13.9124L9.96516 12.7355C10.1319 12.5688 10.328 12.4854 10.5536 12.4854C10.7792 12.4854 10.9753 12.5688 11.1421 12.7355C11.3088 12.9022 11.3922 13.0984 11.3922 13.324C11.3922 13.5495 11.3088 13.7457 11.1421 13.9124L9.96516 15.0893L11.7305 16.8547L12.9075 15.6778C13.0742 15.5111 13.2703 15.4277 13.4959 15.4277C13.7215 15.4277 13.9176 15.5111 14.0844 15.6778C14.2511 15.8445 14.3345 16.0407 14.3345 16.2663C14.3345 16.4918 14.2511 16.688 14.0844 16.8547L12.9075 18.0316L14.3492 19.4734L16.1146 16.5311L7.34651 7.76301L4.40421 9.52839ZM13.1723 20.6503L3.22728 10.7053C2.84478 10.3228 2.68786 9.86185 2.75652 9.32243C2.82517 8.783 3.09488 8.37599 3.56565 8.10137L7.61131 5.67397L8.78824 4.49705C9.11189 4.1734 9.5042 4.01157 9.96516 4.01157C10.4261 4.01157 10.8184 4.1734 11.1421 4.49705L13.4959 6.85089L17.6151 2.73167C18.1055 2.24129 18.694 1.99609 19.3805 1.99609C20.0671 1.99609 20.6555 2.24129 21.1459 2.73167C21.6363 3.22205 21.8815 3.81051 21.8815 4.49705C21.8815 5.18359 21.6363 5.77205 21.1459 6.26243L17.0267 10.3817L19.3805 12.7355C19.7042 13.0592 19.866 13.4515 19.866 13.9124C19.866 14.3734 19.7042 14.7657 19.3805 15.0893L18.2036 16.2663L15.7762 20.3119C15.531 20.8121 15.1363 21.0941 14.5919 21.1578C14.0476 21.2216 13.5744 21.0524 13.1723 20.6503Z"/>
<path d="M3.7268 16.1219C3.49109 15.8862 3.37324 15.5916 3.37324 15.238C3.37324 14.8845 3.49109 14.5899 3.7268 14.3541C3.97428 14.1067 4.27186 13.9859 4.61952 13.9918C4.96718 13.9977 5.25886 14.1184 5.49456 14.3542C5.74205 14.6016 5.86579 14.8963 5.86579 15.238C5.86579 15.5798 5.74205 15.8744 5.49456 16.1219C5.25886 16.3576 4.96718 16.4784 4.61952 16.4843C4.27186 16.4902 3.97428 16.3694 3.7268 16.1219ZM3.7268 20.3646C3.49109 20.1289 3.37324 19.8342 3.37324 19.4807C3.37324 19.1271 3.49109 18.8325 3.7268 18.5968C3.97428 18.3493 4.27186 18.2285 4.61952 18.2344C4.96718 18.2403 5.25886 18.3611 5.49456 18.5968C5.74205 18.8443 5.86579 19.1389 5.86579 19.4807C5.86579 19.8224 5.74205 20.1171 5.49456 20.3646C5.25886 20.6003 4.96718 20.7211 4.61952 20.7269C4.27186 20.7328 3.97428 20.612 3.7268 20.3646ZM7.96944 20.3646C7.73373 20.1289 7.61588 19.8342 7.61588 19.4807C7.61588 19.1271 7.73373 18.8325 7.96944 18.5968C8.21692 18.3493 8.5145 18.2285 8.86216 18.2344C9.20982 18.2403 9.5015 18.3611 9.7372 18.5968C9.98469 18.8443 10.1084 19.1389 10.1084 19.4807C10.1084 19.8224 9.98469 20.1171 9.7372 20.3646C9.5015 20.6003 9.20982 20.7211 8.86216 20.7269C8.5145 20.7328 8.21692 20.612 7.96944 20.3646Z"/>
</svg>