<svg viewBox="0 0 18 18" xmlns="http://www.w3.org/2000/svg">
<path fill-rule="evenodd" clip-rule="evenodd" d="M14.1585 2.06445C14.1388 1.97852 13.972 1.97852 13.9523 2.06445C13.8219 2.63277 13.5562 3.51088 13.0889 3.97815C12.6217 4.44541 11.7436 4.71116 11.1752 4.84148C11.0893 4.86118 11.0893 5.02803 11.1752 5.04774C11.7436 5.17806 12.6217 5.4438 13.0889 5.91107C13.5562 6.37833 13.8219 7.25644 13.9523 7.82476C13.972 7.9107 14.1388 7.9107 14.1585 7.82476C14.2888 7.25644 14.5546 6.37833 15.0219 5.91107C15.4891 5.4438 16.3672 5.17806 16.9355 5.04774C17.0215 5.02803 17.0215 4.86118 16.9355 4.84148C16.3672 4.71116 15.4891 4.44541 15.0219 3.97815C14.5546 3.51088 14.2888 2.63277 14.1585 2.06445ZM8.45346 4.34398C8.43669 4.25742 8.28425 4.25742 8.26748 4.34398C8.06836 5.37145 7.52674 7.60742 6.42755 8.70661C5.32836 9.8058 3.09239 10.3474 2.06492 10.5465C1.97836 10.5633 1.97836 10.7157 2.06492 10.7325C3.09239 10.9316 5.32836 11.4733 6.42755 12.5725C7.52674 13.6716 8.06836 15.9076 8.26748 16.9351C8.28425 17.0216 8.43669 17.0216 8.45346 16.9351C8.65258 15.9076 9.1942 13.6716 10.2934 12.5725C11.3926 11.4733 13.6285 10.9316 14.656 10.7325C14.7426 10.7157 14.7426 10.5633 14.656 10.5465C13.6285 10.3474 11.3926 9.8058 10.2934 8.70661C9.1942 7.60742 8.65258 5.37145 8.45346 4.34398Z"/>
</svg>
