<svg viewBox="0 0 19 20" fill="none" xmlns="http://www.w3.org/2000/svg">
<g id="Group 11">
<path id="schedule-campaign" d="M12.2227 16C11.5227 16 10.931 15.7583 10.4477 15.275C9.96432 14.7917 9.72266 14.2 9.72266 13.5C9.72266 12.8 9.96432 12.2083 10.4477 11.725C10.931 11.2417 11.5227 11 12.2227 11C12.9227 11 13.5143 11.2417 13.9977 11.725C14.481 12.2083 14.7227 12.8 14.7227 13.5C14.7227 14.2 14.481 14.7917 13.9977 15.275C13.5143 15.7583 12.9227 16 12.2227 16ZM2.72266 20C2.17266 20 1.70182 19.8042 1.31016 19.4125C0.91849 19.0208 0.722656 18.55 0.722656 18V4C0.722656 3.45 0.91849 2.97917 1.31016 2.5875C1.70182 2.19583 2.17266 2 2.72266 2H3.72266V0H5.72266V2H13.7227V0H15.7227V2H16.7227C17.2727 2 17.7435 2.19583 18.1352 2.5875C18.5268 2.97917 18.7227 3.45 18.7227 4V18C18.7227 18.55 18.5268 19.0208 18.1352 19.4125C17.7435 19.8042 17.2727 20 16.7227 20H2.72266ZM2.72266 18H16.7227V8H2.72266V18ZM2.72266 6H16.7227V4H2.72266V6Z"/>
</g>
</svg>
