<svg xmlns="http://www.w3.org/2000/svg" viewBox="0 0 16 18" >
    <path
      d="M6.90439 8.58292H9.08811V2.48021C9.08811 2.17958 8.98122 1.92238 8.76744 1.7086C8.55366 1.49482 8.29646 1.38793 7.99583 1.38793C7.6952 1.38793 7.438 1.49482 7.22422 1.7086C7.01045 1.92238 6.90356 2.17958 6.90356 2.48021L6.90439 8.58292ZM2.05429 11.6017H13.9382V9.93156C13.9382 9.78208 13.8898 9.65849 13.7937 9.56162C13.6977 9.46559 13.5741 9.41716 13.4246 9.41716H2.56869C2.41838 9.41716 2.29562 9.46559 2.19959 9.56162C2.10356 9.65766 2.05512 9.78125 2.05512 9.93156L2.05429 11.6017ZM1.38957 16.6121H3.5641V14.5245C3.5641 14.4059 3.60418 14.3073 3.68435 14.2272C3.76452 14.147 3.86389 14.1069 3.98247 14.1069C4.10105 14.1069 4.20042 14.147 4.27976 14.2272C4.35992 14.3073 4.39917 14.4067 4.39917 14.5245V16.6121H7.57913V14.5245C7.57913 14.4059 7.61921 14.3073 7.69938 14.2272C7.77955 14.147 7.87892 14.1069 7.9975 14.1069C8.11608 14.1069 8.21462 14.147 8.29479 14.2272C8.37412 14.3073 8.4142 14.4067 8.4142 14.5245V16.6121H11.5942V14.5245C11.5942 14.4059 11.6342 14.3073 11.7144 14.2272C11.7946 14.147 11.894 14.1069 12.0125 14.1069C12.1311 14.1069 12.2305 14.147 12.3098 14.2272C12.3892 14.3073 12.4292 14.4067 12.4292 14.5245V16.6121H14.6038C14.775 16.6121 14.9144 16.5453 15.0213 16.4109C15.1282 16.2773 15.1549 16.1295 15.1015 15.9691L14.0735 12.4359H1.91984L0.891864 15.9691C0.838419 16.1295 0.865142 16.2764 0.972031 16.4109C1.07892 16.5453 1.21838 16.6121 1.38957 16.6121ZM14.7315 17.4472H1.26097C0.857626 17.4472 0.526102 17.2852 0.267229 16.9604C0.0083567 16.6355 -0.0626245 16.2731 0.0551208 15.8731L1.21921 11.8748V9.83553C1.21921 9.48313 1.3403 9.18668 1.58163 8.94534C1.82297 8.704 2.12026 8.58292 2.47182 8.58292H6.06932V2.48021C6.06932 1.94492 6.25637 1.48981 6.63132 1.11486C7.00627 0.739913 7.46138 0.552856 7.99667 0.552856C8.53195 0.552856 8.98706 0.739913 9.36201 1.11486C9.73696 1.48981 9.92402 1.94409 9.92402 2.48021V8.58292H13.5215C13.8739 8.58292 14.1704 8.704 14.4117 8.94534C14.653 9.18668 14.7741 9.48313 14.7741 9.83553V11.8748L15.9382 15.9057C16.066 16.2957 15.9992 16.6497 15.7386 16.9687C15.4781 17.2877 15.1416 17.4472 14.7315 17.4472Z"
     />
</svg>
