<svg viewBox="0 0 21 16" fill="none" xmlns="http://www.w3.org/2000/svg">
<g id="Group 11">
<path id="subscriber-mamagement" d="M15.7227 11C15.0227 11 14.431 10.7583 13.9477 10.275C13.4643 9.79167 13.2227 9.2 13.2227 8.5C13.2227 7.8 13.4643 7.20833 13.9477 6.725C14.431 6.24167 15.0227 6 15.7227 6C16.4227 6 17.0143 6.24167 17.4977 6.725C17.981 7.20833 18.2227 7.8 18.2227 8.5C18.2227 9.2 17.981 9.79167 17.4977 10.275C17.0143 10.7583 16.4227 11 15.7227 11ZM10.7227 16V14.6C10.7227 14.2 10.8268 13.8292 11.0352 13.4875C11.2435 13.1458 11.5393 12.9 11.9227 12.75C12.5227 12.5 13.1435 12.3125 13.7852 12.1875C14.4268 12.0625 15.0727 12 15.7227 12C16.3727 12 17.0185 12.0625 17.6602 12.1875C18.3018 12.3125 18.9227 12.5 19.5227 12.75C19.906 12.9 20.2018 13.1458 20.4102 13.4875C20.6185 13.8292 20.7227 14.2 20.7227 14.6V16H10.7227ZM8.72266 8C7.62266 8 6.68099 7.60833 5.89766 6.825C5.11432 6.04167 4.72266 5.1 4.72266 4C4.72266 2.9 5.11432 1.95833 5.89766 1.175C6.68099 0.391667 7.62266 0 8.72266 0C9.82266 0 10.7643 0.391667 11.5477 1.175C12.331 1.95833 12.7227 2.9 12.7227 4C12.7227 5.1 12.331 6.04167 11.5477 6.825C10.7643 7.60833 9.82266 8 8.72266 8ZM0.722656 16V13.2C0.722656 12.6333 0.864323 12.1125 1.14766 11.6375C1.43099 11.1625 1.82266 10.8 2.32266 10.55C3.32266 10.05 4.36016 9.66667 5.43516 9.4C6.51016 9.13333 7.60599 9 8.72266 9C9.30599 9 9.88932 9.05 10.4727 9.15C11.056 9.25 11.6393 9.36667 12.2227 9.5L11.3727 10.35L10.5227 11.2C10.2227 11.1167 9.92266 11.0625 9.62266 11.0375C9.32266 11.0125 9.02266 11 8.72266 11C7.75599 11 6.81016 11.1167 5.88516 11.35C4.96016 11.5833 4.07266 11.9167 3.22266 12.35C3.05599 12.4333 2.93099 12.55 2.84766 12.7C2.76432 12.85 2.72266 13.0167 2.72266 13.2V14H8.72266V16H0.722656ZM8.72266 6C9.27266 6 9.74349 5.80417 10.1352 5.4125C10.5268 5.02083 10.7227 4.55 10.7227 4C10.7227 3.45 10.5268 2.97917 10.1352 2.5875C9.74349 2.19583 9.27266 2 8.72266 2C8.17266 2 7.70182 2.19583 7.31016 2.5875C6.91849 2.97917 6.72266 3.45 6.72266 4C6.72266 4.55 6.91849 5.02083 7.31016 5.4125C7.70182 5.80417 8.17266 6 8.72266 6Z"/>
</g>
</svg>
