<svg width="20" height="20" viewBox="0 0 20 20" fill="none" xmlns="http://www.w3.org/2000/svg">
<g clip-path="url(#clip0_711_6990)">
<path d="M11.5624 5.99174C13.0169 5.47687 13.5555 3.82318 13.5017 2.65721C8.03445 0.0552238 2.54056 4.71766 3.42922 9.9226C3.57905 10.8756 3.9762 11.7727 4.58105 12.5243C5.1859 13.2759 5.97728 13.8557 6.87623 14.2059C6.74146 14.3417 6.49905 14.6936 6.39142 14.8294C8.14208 15.209 9.40792 15.1547 10.5123 14.7479C11.3906 14.4302 12.1705 13.8881 12.7745 13.1757C13.2797 12.6004 13.6398 11.9125 13.8246 11.1695C13.8517 11.0881 13.6631 10.8985 13.9593 11.0338C14.2556 11.169 13.8784 12.3079 13.7707 12.5789C13.6238 12.9211 13.4433 13.248 13.2321 13.5548C12.6573 14.3919 11.8909 15.0797 10.9966 15.561C9.62318 16.3202 7.25342 16.5097 5.77183 15.7505C4.29025 14.9913 3.53685 16.293 4.93747 17.0251C12.6125 20.1696 18.8874 10.6275 11.5624 5.99174ZM12.6935 12.1455C11.0776 14.8022 7.87301 14.2059 6.0952 12.3879C4.3174 10.5698 4.50647 7.99644 5.82613 6.18227C6.53909 5.23353 7.46237 4.46305 8.52339 3.9314C9.58442 3.39975 10.7543 3.12142 11.9411 3.11826C11.9717 3.2878 11.9892 3.45945 11.9934 3.63168C12.0206 4.01002 11.962 4.3896 11.8221 4.74216C11.6821 5.09471 11.4645 5.41115 11.1852 5.66789L10.7542 6.0475C12.8283 7.34728 13.9055 10.1665 12.6935 12.1455Z" fill="#F1F1F1"/>
<path d="M5.7208 8.97398C6.12465 5.04215 10.6489 4.26112 12.3191 9.5126C13.9893 14.7641 5.10121 13.714 5.7208 8.97398ZM9.41022 11.5595C12.992 11.6943 11.2685 8.0315 8.92541 7.22381C6.58231 6.41611 5.2898 11.5595 9.41022 11.5595Z" fill="#F1F1F1"/>
<path d="M16.641 2.9495C16.6597 2.8653 16.8202 2.8653 16.8389 2.9495C16.9757 3.56526 17.2672 4.56796 17.7928 5.09354C18.3184 5.61912 19.3211 5.91067 19.9369 6.04744C20.021 6.06614 20.021 6.22671 19.9369 6.24541C19.3211 6.38217 18.3184 6.67373 17.7928 7.19931C17.2672 7.72488 16.9757 8.72759 16.8389 9.34335C16.8202 9.42754 16.6597 9.42754 16.641 9.34335C16.5042 8.72759 16.2126 7.72488 15.6871 7.19931C15.1615 6.67373 14.1588 6.38217 13.543 6.24541C13.4588 6.22671 13.4588 6.06614 13.543 6.04744C14.1588 5.91067 15.1615 5.61912 15.6871 5.09354C16.2126 4.56796 16.5042 3.56526 16.641 2.9495Z" fill="#F1F1F1"/>
<path d="M1.872 11.4308C1.88373 11.378 1.98441 11.378 1.99614 11.4308C2.0819 11.8169 2.26472 12.4457 2.59429 12.7753C2.92385 13.1048 3.5526 13.2877 3.93872 13.3734C3.99151 13.3851 3.99151 13.4858 3.93872 13.4976C3.5526 13.5833 2.92385 13.7661 2.59429 14.0957C2.26472 14.4253 2.0819 15.054 1.99614 15.4401C1.98441 15.4929 1.88373 15.4929 1.872 15.4401C1.78624 15.054 1.60342 14.4253 1.27386 14.0957C0.944292 13.7661 0.315542 13.5833 -0.0705732 13.4976C-0.123368 13.4858 -0.123368 13.3851 -0.0705732 13.3734C0.315542 13.2877 0.944292 13.1048 1.27386 12.7753C1.60342 12.4457 1.78624 11.8169 1.872 11.4308Z" fill="#F1F1F1"/>
</g>
<defs>
<clipPath id="clip0_711_6990">
<rect width="20" height="20" fill="white"/>
</clipPath>
</defs>
</svg>
