<svg viewBox="0 0 24 12" fill="none" xmlns="http://www.w3.org/2000/svg">
<g id="Group 11">
<path id="no-dauly-send-lim" d="M5.5 12C3.96667 12 2.66667 11.4182 1.6 10.2545C0.533333 9.09091 0 7.67273 0 6C0 4.32727 0.533333 2.90909 1.6 1.74545C2.66667 0.581818 3.96667 0 5.5 0C6.11667 0 6.70833 0.118182 7.275 0.354545C7.84167 0.590909 8.35 0.927273 8.8 1.36364L10.5 3.05455L9 4.52727L7.45 3C7.18333 2.74545 6.88333 2.54545 6.55 2.4C6.21667 2.25455 5.86667 2.18182 5.5 2.18182C4.53333 2.18182 3.70833 2.55455 3.025 3.3C2.34167 4.04545 2 4.94545 2 6C2 7.05455 2.34167 7.95455 3.025 8.7C3.70833 9.44545 4.53333 9.81818 5.5 9.81818C5.86667 9.81818 6.21667 9.74545 6.55 9.6C6.88333 9.45455 7.18333 9.25455 7.45 9L15.2 1.36364C15.65 0.927273 16.1583 0.590909 16.725 0.354545C17.2917 0.118182 17.8833 0 18.5 0C20.0333 0 21.3333 0.581818 22.4 1.74545C23.4667 2.90909 24 4.32727 24 6C24 7.67273 23.4667 9.09091 22.4 10.2545C21.3333 11.4182 20.0333 12 18.5 12C17.8833 12 17.2917 11.8818 16.725 11.6455C16.1583 11.4091 15.65 11.0727 15.2 10.6364L13.5 8.94545L15 7.47273L16.55 9C16.8167 9.25455 17.1167 9.45455 17.45 9.6C17.7833 9.74545 18.1333 9.81818 18.5 9.81818C19.4667 9.81818 20.2917 9.44545 20.975 8.7C21.6583 7.95455 22 7.05455 22 6C22 4.94545 21.6583 4.04545 20.975 3.3C20.2917 2.55455 19.4667 2.18182 18.5 2.18182C18.1333 2.18182 17.7833 2.25455 17.45 2.4C17.1167 2.54545 16.8167 2.74545 16.55 3L8.8 10.6364C8.35 11.0727 7.84167 11.4091 7.275 11.6455C6.70833 11.8818 6.11667 12 5.5 12Z"/>
</g>
</svg>
