<svg id="uuid-cf540a46-adb5-4bcd-8a81-ca8f02aa6093" xmlns="http://www.w3.org/2000/svg" viewBox="0 0 40 40"><path d="M39.991,19.405C39.663,8.365,30.446-.319,19.405.009,8.365.337-.319,9.554.009,20.595c.328,11.041,9.545,19.725,20.586,19.396s19.725-9.545,19.396-20.586ZM15.332,9.656c4.042-1.823,8.575-1.072,11.802,1.538l1.76-1.971.396,7.012-7.012.396,1.838-2.058c-1.929-1.455-4.568-1.85-6.922-.788-2.479,1.118-3.96,3.543-4.013,6.096l-4.377,1.974c-.818-4.956,1.732-10.036,6.528-12.199ZM24.668,30.356c-4.042,1.823-8.575,1.072-11.802-1.538l-1.76,1.971-.396-7.012,7.012-.396-1.838,2.058c1.929,1.455,4.568,1.85,6.922.788,2.479-1.118,3.96-3.543,4.013-6.096l4.377-1.974c.818,4.956-1.732,10.036-6.528,12.199Z" fill="#363636" stroke-width="0"/></svg>
