<svg id="Layer_1" xmlns="http://www.w3.org/2000/svg" width="32" height="32" version="1.1" viewBox="0 0 47.4 64.5">
  <!-- Generator: Adobe Illustrator 29.0.0, SVG Export Plug-In . SVG Version: 2.1.0 Build 186)  -->
  <defs>
    <style>
      .st0 {
        fill: #323230;
      }

      .st0, .st1 {
        fill-rule: evenodd;
      }

      .st1 {
        fill: #96c94e;
      }
    </style>
  </defs>
  <g id="SiteGround-logo-dark">
    <path class="st1" d="M14.7,50.4C7.1,47.9,1.7,40.5.4,32.8-3.3,11.6,19.4-7.6,42,3c.3,4.8-2,11.6-8,13.6,30.2,19.1,4.4,58.2-27.3,45.3-5.8-2.9-2.7-8.3,3.5-5.2,6.9,2.4,15.9,2.4,21.5-.7,3.6-2,6.9-4.7,9.2-8.2.6-1,1.5-2.4,2.2-4,.5-1.1,2-5.8.8-6.3-.3-.1-.5.2-.5.6-.8,3.1-2.3,5.8-4.3,8.2-2.4,2.8-5.5,5-9.3,6.4-4.5,1.6-9.7,1.9-16.9.3.5-.5,1.4-1.9,2-2.5h0ZM35.5,4.9s.2.9.2,2.1c.1,3.5-.8,5.8-3.3,8.3-.5.5-1.1,1-1.7,1.6,8.5,5.3,13,16.9,8,25-6.7,10.9-19.9,8.4-27.2,1-7.6-7.8-6.6-18-1.1-25.5,5.6-7.7,15.9-12.8,25.1-12.5h0Z"/>
    <path class="st0" d="M9.8,28.9c1.6-16.2,20.3-19.4,27.2,2.2,5.6,22.2-29.8,17.4-27.2-2.2h0ZM25,39.6c14.7.5,7.7-14.5-2-17.9-9.6-3.3-14.9,17.9,2,17.9h0Z"/>
  </g>
</svg>
