<svg viewBox="0 0 25 24" fill="none" xmlns="http://www.w3.org/2000/svg">
<g id="Frame 48095638">
<g id="Group 10">
<path id="unlim-sigh-up-forms" d="M13.2778 11.1944L14.3056 12.2222L20.3333 6.19444L19.3056 5.16667L13.2778 11.1944ZM5.22222 20.2778H6.25L12.7222 13.8056L11.6944 12.7778L5.22222 19.25V20.2778ZM15.0833 14.5833L10.9167 10.4167L15.5556 5.77778L14.75 4.97222L8.66667 11.0556L7.11111 9.5L13.1667 3.41667C13.6111 2.97222 14.1343 2.75 14.7361 2.75C15.338 2.75 15.8611 2.97222 16.3056 3.41667L17.1111 4.22222L18.5 2.83333C18.7222 2.61111 18.9861 2.5 19.2917 2.5C19.5972 2.5 19.8611 2.61111 20.0833 2.83333L22.6667 5.41667C22.8889 5.63889 23 5.90278 23 6.20833C23 6.51389 22.8889 6.77778 22.6667 7L15.0833 14.5833ZM7.16667 22.5H3V18.3333L10.9167 10.4167L15.0833 14.5833L7.16667 22.5Z"/>
</g>
</g>
</svg>
