<svg xmlns="http://www.w3.org/2000/svg" width="64" height="64" viewBox="0 0 64 64">
    <path d="M55.26,30.945v27.6l-6.24-7.29c-.19-.22-.46-.35-.76-.35h-23.48v-5.28h23.13c.55,0,1-.45,1-1v-13.68h6.35Z" class="sgmaincolor"/>
    <path d="M46.91,17.315v2.06c-1.22-.52-2.36-1.17-3.32-2.06h3.32Z" class="sgmaincolor"/>
    <path d="M46.91,23.815v19.81h-30.56c-.29,0-.57.13-.76.35l-8.55,9.99V17.315h27.13c-1.93,1.8-4.63,2.66-7.28,3.31-.45.11-.76.51-.76.97s.31.86.76.97c2.75.68,5.56,1.58,7.5,3.52.82.83,1.45,1.79,1.96,2.86.16.32.3.65.43,1,.14.32.26.66.37,1,.3.87.54,1.76.76,2.65.11.44.51.76.97.76s.86-.32.97-.76c.22-.89.46-1.78.76-2.65.11-.34.23-.68.37-1,.13-.35.27-.68.43-1,.51-1.07,1.14-2.03,1.97-2.86,1-1,2.21-1.71,3.53-2.27Z" class="sgmaincolor"/>
    <path d="M51.47,12.615c-.34-.72-.79-1.4-1.38-1.99-.59-.59-1.27-1.04-1.99-1.38.72-.35,1.41-.8,1.99-1.38.59-.59,1.04-1.27,1.39-1.99.34.72.79,1.4,1.37,1.99.59.58,1.28,1.03,2,1.38-.72.35-1.41.79-2,1.38-.58.58-1.03,1.27-1.38,1.99Z"/>
    <path d="M54.85,9.245c-.72.35-1.41.79-2,1.38-.58.58-1.03,1.27-1.38,1.99-.34-.72-.79-1.4-1.38-1.99-.59-.59-1.27-1.04-1.99-1.38.72-.35,1.41-.8,1.99-1.38.59-.59,1.04-1.27,1.39-1.99.34.72.79,1.4,1.37,1.99.59.58,1.28,1.03,2,1.38Z" class="sgmaincolor"/>
    <path d="M47.1,21.595c-.06.02-.13.05-.19.07-1.82.67-3.54,1.6-4.95,3.01-1.23,1.23-2.09,2.7-2.74,4.27-.12.29-.23.58-.34.87-.11-.29-.22-.59-.34-.87-.64-1.57-1.51-3.05-2.74-4.27-1.45-1.46-3.24-2.4-5.14-3.08,1.9-.68,3.69-1.62,5.14-3.08.38-.38.72-.78,1.04-1.2.24-.32.46-.66.66-1,.21-.32.39-.66.55-1,.32-.63.59-1.28.83-1.94.24.66.51,1.31.82,1.94.17.34.35.68.56,1,.2.34.42.68.66,1,.32.42.66.82,1.04,1.2,1.41,1.41,3.13,2.34,4.95,3.01.06.02.13.05.19.07Z" class="sgmaincolor"/>
    <path d="M56.26,28.945h-7.35v-5.84c.65-.2,1.31-.38,1.97-.54.45-.11.76-.51.76-.97s-.31-.86-.76-.97c-.66-.16-1.32-.34-1.97-.54v-3.77c0-.55-.45-1-1-1h-5.92c-1.04-1.7-1.65-3.73-2.14-5.72-.11-.44-.51-.76-.97-.76s-.86.32-.97.76c-.49,1.99-1.1,4.02-2.13,5.72H6.04c-.55,0-1,.45-1,1v40.35c0,.42.26.8.66.94.11.04.23.06.34.06.29,0,.57-.12.76-.35l10.01-11.69h5.97v6.28c0,.55.45,1,1,1h24.02l7.7,8.99c.19.23.47.35.76.35.12,0,.23-.02.35-.06.39-.14.65-.52.65-.94v-31.3c0-.56-.45-1-1-1ZM46.91,17.315v2.06c-1.22-.52-2.36-1.17-3.32-2.06h3.32ZM37.5,16.315c.21-.32.39-.66.55-1,.32-.63.59-1.28.83-1.94.24.66.51,1.31.82,1.94.17.34.35.68.56,1,.2.34.42.68.66,1,.32.42.66.82,1.04,1.2,1.41,1.41,3.13,2.34,4.95,3.01.06.02.13.05.19.07-.06.02-.13.05-.19.07-1.82.67-3.54,1.6-4.95,3.01-1.23,1.23-2.09,2.7-2.74,4.27-.12.29-.23.58-.34.87-.11-.29-.22-.59-.34-.87-.64-1.57-1.51-3.05-2.74-4.27-1.45-1.46-3.24-2.4-5.14-3.08,1.9-.68,3.69-1.62,5.14-3.08.38-.38.72-.78,1.04-1.2.24-.32.46-.66.66-1ZM16.35,43.625c-.29,0-.57.13-.76.35l-8.55,9.99V17.315h27.13c-1.93,1.8-4.63,2.66-7.28,3.31-.45.11-.76.51-.76.97s.31.86.76.97c2.75.68,5.56,1.58,7.5,3.52.82.83,1.45,1.79,1.96,2.86.16.32.3.65.43,1,.14.32.26.66.37,1,.3.87.54,1.76.76,2.65.11.44.51.76.97.76s.86-.32.97-.76c.22-.89.46-1.78.76-2.65.11-.34.23-.68.37-1,.13-.35.27-.68.43-1,.51-1.07,1.14-2.03,1.97-2.86,1-1,2.21-1.71,3.53-2.27v19.81h-30.56ZM55.26,58.545l-6.24-7.29c-.19-.22-.46-.35-.76-.35h-23.48v-5.28h23.13c.55,0,1-.45,1-1v-13.68h6.35v27.6Z"/>
    <path d="M58.2,8.275c-1.46-.36-2.94-.83-3.93-1.83-1-.99-1.47-2.47-1.83-3.92-.11-.45-.51-.77-.97-.77s-.86.32-.97.76c-.36,1.46-.83,2.94-1.82,3.93-1,1-2.48,1.47-3.93,1.83-.45.11-.76.51-.76.97s.31.86.76.97c1.45.36,2.93.83,3.93,1.82.99,1,1.46,2.48,1.82,3.93.11.45.51.76.97.76s.86-.31.97-.76c.36-1.45.83-2.93,1.83-3.93.99-.99,2.47-1.46,3.93-1.82.44-.11.76-.51.76-.97s-.32-.86-.76-.97ZM51.47,12.615c-.34-.72-.79-1.4-1.38-1.99-.59-.59-1.27-1.04-1.99-1.38.72-.35,1.41-.8,1.99-1.38.59-.59,1.04-1.27,1.39-1.99.34.72.79,1.4,1.37,1.99.59.58,1.28,1.03,2,1.38-.72.35-1.41.79-2,1.38-.58.58-1.03,1.27-1.38,1.99Z"/>
</svg>