<?xml version="1.0" encoding="utf-8"?>
<!-- Generator: Adobe Illustrator 25.2.0, SVG Export Plug-In . SVG Version: 6.00 Build 0)  -->
<svg version="1.1" id="Layer_1" xmlns="http://www.w3.org/2000/svg" xmlns:xlink="http://www.w3.org/1999/xlink" x="0px" y="0px"
	 viewBox="0 0 201.9 243.6" style="enable-background:new 0 0 201.9 243.6;" xml:space="preserve">
<style type="text/css">
	.st0{fill:#E7EFF0;}
	.st1{fill:#FFFFFF;}
	.st2{fill:#3E8487;}
	.st3{fill:#9AD8B8;}
	.st4{fill:#0AB964;}
	.st5{fill:#CC4040;}
	.st6{opacity:0.49;}
</style>
<g id="OBJECTS">
	<g>
		<g>
			<path class="st0" d="M196.2,78.4H5.8c-3.2,0-5.8-2.6-5.8-5.8V5.8C0,2.6,2.6,0,5.8,0h190.3c3.2,0,5.8,2.6,5.8,5.8v66.8
				C202,75.8,199.4,78.4,196.2,78.4z"/>
			<g>
				<rect x="78.9" y="11.1" class="st1" width="110.4" height="10"/>
				<rect x="78.9" y="26.5" class="st1" width="110.4" height="10"/>
				<rect x="78.9" y="42" class="st1" width="67.4" height="10"/>
				<rect x="78.9" y="57.4" class="st1" width="67.4" height="10"/>
			</g>
			<circle class="st2" cx="35.4" cy="41.3" r="22"/>
		</g>
		<g>
			<path class="st3" d="M196.2,161H5.8c-3.2,0-5.8-2.6-5.8-5.8V88.4c0-3.2,2.6-5.8,5.8-5.8h190.3c3.2,0,5.8,2.6,5.8,5.8v66.8
				C202,158.4,199.4,161,196.2,161z"/>
			<g>
				<rect x="78.9" y="93.7" class="st1" width="110.4" height="10"/>
				<rect x="78.9" y="109.1" class="st1" width="110.4" height="10"/>
				<rect x="78.9" y="124.5" class="st1" width="67.4" height="10"/>
				<rect x="78.9" y="140" class="st1" width="67.4" height="10"/>
			</g>
			<circle class="st4" cx="35.4" cy="123.9" r="22"/>
		</g>
		<g>
			<path class="st0" d="M196.2,243.6H5.8c-3.2,0-5.8-2.6-5.8-5.8V171c0-3.2,2.6-5.8,5.8-5.8h190.3c3.2,0,5.8,2.6,5.8,5.8v66.8
				C202,241,199.4,243.6,196.2,243.6z"/>
			<g>
				<rect x="78.9" y="176.3" class="st1" width="110.4" height="10"/>
				<rect x="78.9" y="191.7" class="st1" width="110.4" height="10"/>
				<rect x="78.9" y="207.1" class="st1" width="67.4" height="10"/>
				<rect x="78.9" y="222.5" class="st1" width="67.4" height="10"/>
			</g>
			<circle class="st2" cx="35.4" cy="206.5" r="22"/>
		</g>
	</g>
	<polygon class="st5" points="65,82.6 0,134.8 0,119.6 48.8,82.3 	"/>
	<g>
		<path class="st1" d="M4.7,121l2.3-1.8l0.4,0.5L5.8,121l0.8,1l1.3-1l0.4,0.5l-1.3,1l0.8,1.1l1.7-1.3l0.4,0.5l-2.3,1.9L4.7,121z"/>
		<path class="st1" d="M10,119.7l-2.5-0.9l0.8-0.6l1.8,0.7l-0.3-1.9l0.7-0.6l0.3,2.6l2.6,0.9l-0.8,0.6l-2-0.7l0.3,2.1l-0.7,0.5
			L10,119.7z"/>
		<path class="st1" d="M12.2,118L12.2,118c-0.9-1.1-0.8-2.5,0.2-3.3c0.8-0.7,1.8-0.8,2.5,0l-0.7,0.5c-0.5-0.4-0.9-0.5-1.4,0
			c-0.6,0.5-0.7,1.3,0,2.1l0,0c0.6,0.8,1.4,1,2.1,0.4c0.5-0.4,0.6-0.9,0.3-1.5l0.7-0.5c0.6,1,0.3,1.9-0.5,2.6
			C14.2,119.3,13,119.1,12.2,118z"/>
		<path class="st1" d="M14.6,113.1l0.7-0.5l2.4,3.1l1.5-1.2l0.4,0.5l-2.2,1.8L14.6,113.1z"/>
		<path class="st1" d="M19,113.2l-1.8-2.2l0.7-0.5l1.7,2.2c0.5,0.7,1,0.8,1.5,0.3c0.5-0.4,0.6-0.9,0-1.6l-1.7-2.1l0.7-0.5l1.7,2.2
			c0.8,0.9,0.7,1.9-0.3,2.6C20.7,114.2,19.8,114.1,19,113.2z"/>
		<path class="st1" d="M22.7,110.7l0.6-0.5c0.3,0.3,0.7,0.5,1.3,0c0.4-0.3,0.5-0.8,0.2-1.1c-0.3-0.3-0.5-0.3-1.2,0
			c-1,0.6-1.6,0.6-2.1,0c-0.5-0.6-0.3-1.4,0.4-2c0.8-0.6,1.5-0.6,2.1,0l-0.6,0.5c-0.4-0.3-0.7-0.3-1.1,0c-0.4,0.3-0.5,0.7-0.2,1
			c0.2,0.3,0.5,0.3,1.2-0.1c0.9-0.6,1.6-0.7,2.1,0.1c0.5,0.6,0.4,1.5-0.4,2.2C24.1,111.5,23.3,111.3,22.7,110.7z"/>
		<path class="st1" d="M24.1,105.5l0.7-0.5l2.9,3.6l-0.7,0.5L24.1,105.5z"/>
		<path class="st1" d="M25.4,104.5l0.7-0.6l3.3,2.2l-1.4-3.7l0.6-0.5l1.7,4.6l-0.8,0.6L25.4,104.5z"/>
		<path class="st1" d="M29.1,101.5l2.3-1.8l0.4,0.5l-1.6,1.3l0.8,1l1.3-1l0.4,0.5l-1.3,1l0.8,1.1l1.7-1.3l0.4,0.5l-2.3,1.9
			L29.1,101.5z"/>
		<path class="st1" d="M33.2,98.2l1.1-0.9c1.3-1,2.4-0.8,3.3,0.3l0,0c0.8,1,0.8,2.3-0.4,3.3l-1.1,0.9L33.2,98.2z M36.8,100.4
			c0.8-0.6,0.8-1.4,0.2-2.2l0,0c-0.6-0.8-1.3-1-2.2-0.3l-0.4,0.3l2,2.5L36.8,100.4z"/>
		<path class="st1" d="M36.8,95.3l2.3-1.8l0.4,0.5l-1.6,1.3l0.8,1l1.3-1l0.4,0.5l-1.3,1l0.8,1.1l1.7-1.3l0.4,0.5l-2.3,1.9L36.8,95.3
			z"/>
		<path class="st1" d="M40.7,92.2l0.9-0.7l4.1,2.7l-0.7,0.6l-1-0.7l-1.4,1.1l0.4,1.1l-0.6,0.5L40.7,92.2z M42.3,94.6l1.1-0.8
			l-1.9-1.2L42.3,94.6z"/>
		<path class="st1" d="M43.3,90.2l0.7-0.5l2.4,3.1l1.5-1.2l0.4,0.5l-2.2,1.8L43.3,90.2z"/>
		<path class="st1" d="M47.8,90.6l0.6-0.5c0.3,0.3,0.7,0.5,1.3,0c0.4-0.3,0.5-0.8,0.2-1.1c-0.3-0.3-0.5-0.3-1.2,0
			c-1,0.6-1.6,0.6-2.1,0c-0.5-0.6-0.3-1.4,0.4-2c0.8-0.6,1.5-0.6,2.1,0l-0.6,0.5c-0.4-0.3-0.7-0.3-1.1,0c-0.4,0.3-0.5,0.7-0.2,1
			c0.2,0.3,0.5,0.3,1.2-0.1c0.9-0.6,1.6-0.7,2.1,0.1c0.5,0.6,0.4,1.5-0.4,2.2C49.2,91.4,48.4,91.3,47.8,90.6z"/>
	</g>
	<g>
		<path class="st1" d="M43.8,118.1c0,4.3,0,8.6,0,12.9v0.1c-0.2,0.8-0.6,1.4-1.4,1.7c-0.1,0-0.3,0.1-0.4,0.1c-4.3,0-8.6,0-12.9,0
			c0,0,0,0-0.1,0c-1.1-0.2-1.8-1-1.8-2.2c0-4.1,0-8.2,0-12.3c0-0.2,0-0.4,0.1-0.5c0.2-1,1.1-1.7,2.1-1.7c3.4,0,6.7,0,10.1,0
			c0.8,0,1.5,0,2.3,0c0.9,0,1.7,0.6,2,1.4C43.7,117.8,43.7,117.9,43.8,118.1z M28.1,127.6c0.1,0,0.1-0.1,0.1-0.1
			c0.8-0.7,1.6-1.4,2.4-2c0.6-0.5,1.2-0.5,1.8,0c0.5,0.4,1,0.8,1.5,1.2c0.1,0.1,0.2,0.1,0.3,0c1.4-1.4,2.9-2.9,4.3-4.3
			c0.1-0.1,0.2-0.2,0.4-0.3c0.6-0.3,1.3-0.2,1.7,0.4c0.7,0.9,1.4,1.8,2.2,2.7l0.1,0.1c0,0,0,0,0-0.1c0-2.3,0-4.6,0-6.9
			c0-0.7-0.5-1.2-1.2-1.2c-4.1,0-8.2,0-12.3,0c-0.2,0-0.4,0-0.6,0.1c-0.5,0.2-0.7,0.6-0.7,1.1c0,3,0,6.1,0,9.1
			C28.1,127.5,28.1,127.6,28.1,127.6z M35.4,131.9c2,0,4.1,0,6.1,0c0.7,0,1.2-0.5,1.2-1.2c0-1.2,0-2.5,0-3.7c0-0.1,0-0.1-0.1-0.2
			c-0.2-0.3-0.4-0.5-0.6-0.8c-0.8-1-1.6-1.9-2.4-2.9c-0.1-0.1-0.2-0.2-0.4-0.2c-0.1,0-0.2,0.1-0.3,0.2c-1.5,1.6-3.1,3.1-4.6,4.7
			c-0.3,0.3-0.5,0.3-0.8,0c-0.6-0.5-1.2-1-1.9-1.5c-0.2-0.2-0.3-0.2-0.6,0c-1,0.9-2,1.7-3.1,2.6c-0.1,0.1-0.1,0.1-0.1,0.2
			c0,0.5,0,1.1,0,1.6c0,0.1,0,0.2,0,0.4c0.2,0.5,0.6,0.9,1.2,0.9C31.4,131.9,33.4,131.9,35.4,131.9z"/>
		<path class="st1" d="M30,120.6c0-1.3,1.1-2.4,2.4-2.4c1.3,0,2.4,1.1,2.4,2.4s-1.1,2.4-2.4,2.4C31,123,30,121.9,30,120.6z
			 M31,120.6c0,0.8,0.6,1.4,1.4,1.4c0.8,0,1.4-0.6,1.4-1.4c0-0.8-0.6-1.4-1.4-1.4C31.6,119.2,31,119.9,31,120.6z"/>
	</g>
	<g class="st6">
		<path class="st1" d="M43.8,33.9c0,4.3,0,8.6,0,12.9v0.1c-0.2,0.8-0.6,1.4-1.4,1.7c-0.1,0-0.3,0.1-0.4,0.1c-4.3,0-8.6,0-12.9,0
			c0,0,0,0-0.1,0c-1.1-0.2-1.8-1-1.8-2.2c0-4.1,0-8.2,0-12.3c0-0.2,0-0.4,0.1-0.5c0.2-1,1.1-1.7,2.1-1.7c3.4,0,6.7,0,10.1,0
			c0.8,0,1.5,0,2.3,0c0.9,0,1.7,0.6,2,1.4C43.7,33.6,43.7,33.7,43.8,33.9z M28.1,43.4c0.1,0,0.1-0.1,0.1-0.1c0.8-0.7,1.6-1.4,2.4-2
			c0.6-0.5,1.2-0.5,1.8,0c0.5,0.4,1,0.8,1.5,1.2c0.1,0.1,0.2,0.1,0.3,0c1.4-1.4,2.9-2.9,4.3-4.3c0.1-0.1,0.2-0.2,0.4-0.3
			c0.6-0.3,1.3-0.2,1.7,0.4c0.7,0.9,1.4,1.8,2.2,2.7l0.1,0.1c0,0,0,0,0-0.1c0-2.3,0-4.6,0-6.9c0-0.7-0.5-1.2-1.2-1.2
			c-4.1,0-8.2,0-12.3,0c-0.2,0-0.4,0-0.6,0.1c-0.5,0.2-0.7,0.6-0.7,1.1c0,3,0,6.1,0,9.1C28.1,43.3,28.1,43.4,28.1,43.4z M35.4,47.7
			c2,0,4.1,0,6.1,0c0.7,0,1.2-0.5,1.2-1.2c0-1.2,0-2.5,0-3.7c0-0.1,0-0.1-0.1-0.2c-0.2-0.3-0.4-0.5-0.6-0.8c-0.8-1-1.6-1.9-2.4-2.9
			c-0.1-0.1-0.2-0.2-0.4-0.2c-0.1,0-0.2,0.1-0.3,0.2c-1.5,1.6-3.1,3.1-4.6,4.7c-0.3,0.3-0.5,0.3-0.8,0c-0.6-0.5-1.2-1-1.9-1.5
			c-0.2-0.2-0.3-0.2-0.6,0c-1,0.9-2,1.7-3.1,2.6c-0.1,0.1-0.1,0.1-0.1,0.2c0,0.5,0,1.1,0,1.6c0,0.1,0,0.2,0,0.4
			c0.2,0.5,0.6,0.9,1.2,0.9C31.4,47.7,33.4,47.7,35.4,47.7z"/>
		<path class="st1" d="M30,36.4c0-1.3,1.1-2.4,2.4-2.4c1.3,0,2.4,1.1,2.4,2.4c0,1.3-1.1,2.4-2.4,2.4C31,38.8,30,37.7,30,36.4z
			 M31,36.4c0,0.8,0.6,1.4,1.4,1.4c0.8,0,1.4-0.6,1.4-1.4c0-0.8-0.6-1.4-1.4-1.4C31.6,35,31,35.7,31,36.4z"/>
	</g>
	<g class="st6">
		<path class="st1" d="M43.8,200c0,4.3,0,8.6,0,12.9v0.1c-0.2,0.8-0.6,1.4-1.4,1.7c-0.1,0-0.3,0.1-0.4,0.1c-4.3,0-8.6,0-12.9,0
			c0,0,0,0-0.1,0c-1.1-0.2-1.8-1-1.8-2.2c0-4.1,0-8.2,0-12.3c0-0.2,0-0.4,0.1-0.5c0.2-1,1.1-1.7,2.1-1.7c3.4,0,6.7,0,10.1,0
			c0.8,0,1.5,0,2.3,0c0.9,0,1.7,0.6,2,1.4C43.7,199.8,43.7,199.9,43.8,200z M28.1,209.6c0.1,0,0.1-0.1,0.1-0.1
			c0.8-0.7,1.6-1.4,2.4-2c0.6-0.5,1.2-0.5,1.8,0c0.5,0.4,1,0.8,1.5,1.2c0.1,0.1,0.2,0.1,0.3,0c1.4-1.4,2.9-2.9,4.3-4.3
			c0.1-0.1,0.2-0.2,0.4-0.3c0.6-0.3,1.3-0.2,1.7,0.4c0.7,0.9,1.4,1.8,2.2,2.7l0.1,0.1c0,0,0,0,0-0.1c0-2.3,0-4.6,0-6.9
			c0-0.7-0.5-1.2-1.2-1.2c-4.1,0-8.2,0-12.3,0c-0.2,0-0.4,0-0.6,0.1c-0.5,0.2-0.7,0.6-0.7,1.1c0,3,0,6.1,0,9.1
			C28.1,209.5,28.1,209.5,28.1,209.6z M35.4,213.9c2,0,4.1,0,6.1,0c0.7,0,1.2-0.5,1.2-1.2c0-1.2,0-2.5,0-3.7c0-0.1,0-0.1-0.1-0.2
			c-0.2-0.3-0.4-0.5-0.6-0.8c-0.8-1-1.6-1.9-2.4-2.9c-0.1-0.1-0.2-0.2-0.4-0.2c-0.1,0-0.2,0.1-0.3,0.2c-1.5,1.6-3.1,3.1-4.6,4.7
			c-0.3,0.3-0.5,0.3-0.8,0c-0.6-0.5-1.2-1-1.9-1.5c-0.2-0.2-0.3-0.2-0.6,0c-1,0.9-2,1.7-3.1,2.6c-0.1,0.1-0.1,0.1-0.1,0.2
			c0,0.5,0,1.1,0,1.6c0,0.1,0,0.2,0,0.4c0.2,0.5,0.6,0.9,1.2,0.9C31.4,213.9,33.4,213.9,35.4,213.9z"/>
		<path class="st1" d="M30,202.6c0-1.3,1.1-2.4,2.4-2.4c1.3,0,2.4,1.1,2.4,2.4c0,1.3-1.1,2.4-2.4,2.4C31,204.9,30,203.9,30,202.6z
			 M31,202.6c0,0.8,0.6,1.4,1.4,1.4c0.8,0,1.4-0.6,1.4-1.4c0-0.8-0.6-1.4-1.4-1.4C31.6,201.2,31,201.8,31,202.6z"/>
	</g>
</g>
</svg>
