<?xml version="1.0" encoding="utf-8"?>
<!-- Generator: Adobe Illustrator 25.2.0, SVG Export Plug-In . SVG Version: 6.00 Build 0)  -->
<svg version="1.1" id="Layer_1" xmlns="http://www.w3.org/2000/svg" xmlns:xlink="http://www.w3.org/1999/xlink" x="0px" y="0px"
	 viewBox="0 0 1265.4 443.2" style="enable-background:new 0 0 1265.4 443.2;" xml:space="preserve">
<style type="text/css">
	.st0{fill:#E7EFF0;}
	.st1{fill:#9AD8B8;}
	.st2{fill:#3E8487;}
	.st3{opacity:0.49;}
	.st4{fill:#FFFFFF;}
	.st5{fill:#0AB964;}
</style>
<path class="st0" d="M291.3,443.2H12c-6.6,0-12-5.4-12-12V12C0,5.4,5.4,0,12,0h279.3c6.6,0,12,5.4,12,12v419.2
	C303.3,437.8,297.9,443.2,291.3,443.2z"/>
<path class="st1" d="M612,443.2H332.7c-6.6,0-12-5.4-12-12V12c0-6.6,5.4-12,12-12H612c6.6,0,12,5.4,12,12v419.2
	C624,437.8,618.6,443.2,612,443.2z"/>
<path class="st0" d="M932.7,443.2H653.4c-6.6,0-12-5.4-12-12V12c0-6.6,5.4-12,12-12h279.3c6.6,0,12,5.4,12,12v419.2
	C944.7,437.8,939.3,443.2,932.7,443.2z"/>
<path class="st0" d="M1253.4,443.2H974c-6.6,0-12-5.4-12-12V12c0-6.6,5.4-12,12-12h279.3c6.6,0,12,5.4,12,12v419.2
	C1265.4,437.8,1260,443.2,1253.4,443.2z"/>
<circle class="st2" cx="150.5" cy="104.3" r="75.6"/>
<g class="st3">
	<path class="st4" d="M176.9,83.7c0,13.7,0,27.3,0,41v0.3c-0.6,2.5-1.9,4.5-4.5,5.4c-0.3,0-1,0.3-1.3,0.3c-13.7,0-27.3,0-41,0
		c0,0,0,0-0.3,0c-3.5-0.6-5.7-3.2-5.7-7c0-13,0-26.1,0-39.1c0-0.6,0-1.3,0.3-1.6c0.6-3.2,3.5-5.4,6.7-5.4c10.8,0,21.3,0,32.1,0
		c2.5,0,4.8,0,7.3,0c2.9,0,5.4,1.9,6.4,4.5C176.6,82.8,176.6,83.1,176.9,83.7z M127,114c0.3,0,0.3-0.3,0.3-0.3
		c2.5-2.2,5.1-4.5,7.6-6.4c1.9-1.6,3.8-1.6,5.7,0c1.6,1.3,3.2,2.5,4.8,3.8c0.3,0.3,0.6,0.3,1,0c4.5-4.5,9.2-9.2,13.7-13.7
		c0.3-0.3,0.6-0.6,1.3-1c1.9-1,4.1-0.6,5.4,1.3c2.2,2.9,4.5,5.7,7,8.6l0.3,0.3c0,0,0,0,0-0.3c0-7.3,0-14.6,0-21.9
		c0-2.2-1.6-3.8-3.8-3.8c-13,0-26.1,0-39.1,0c-0.6,0-1.3,0-1.9,0.3c-1.6,0.6-2.2,1.9-2.2,3.5c0,9.5,0,19.4,0,28.9
		C127,113.6,127,114,127,114z M150.2,127.6c6.4,0,13,0,19.4,0c2.2,0,3.8-1.6,3.8-3.8c0-3.8,0-8,0-11.8c0-0.3,0-0.3-0.3-0.6
		c-0.6-1-1.3-1.6-1.9-2.5c-2.5-3.2-5.1-6-7.6-9.2c-0.3-0.3-0.6-0.6-1.3-0.6c-0.3,0-0.6,0.3-1,0.6c-4.8,5.1-9.9,9.9-14.6,14.9
		c-1,1-1.6,1-2.5,0c-1.9-1.6-3.8-3.2-6-4.8c-0.6-0.6-1-0.6-1.9,0c-3.2,2.9-6.4,5.4-9.9,8.3c-0.3,0.3-0.3,0.3-0.3,0.6
		c0,1.6,0,3.5,0,5.1c0,0.3,0,0.6,0,1.3c0.6,1.6,1.9,2.9,3.8,2.9C137.5,127.6,143.9,127.6,150.2,127.6z"/>
	<path class="st4" d="M133.1,91.7c0-4.1,3.5-7.6,7.6-7.6s7.6,3.5,7.6,7.6c0,4.1-3.5,7.6-7.6,7.6C136.2,99.3,133.1,95.8,133.1,91.7z
		 M136.2,91.7c0,2.5,1.9,4.5,4.5,4.5s4.5-1.9,4.5-4.5s-1.9-4.5-4.5-4.5S136.2,89.5,136.2,91.7z"/>
</g>
<circle class="st5" cx="472.3" cy="104.3" r="75.6"/>
<g>
	<path class="st4" d="M498.7,83.7c0,13.7,0,27.3,0,41v0.3c-0.6,2.5-1.9,4.5-4.5,5.4c-0.3,0-1,0.3-1.3,0.3c-13.7,0-27.3,0-41,0
		c0,0,0,0-0.3,0c-3.5-0.6-5.7-3.2-5.7-7c0-13,0-26.1,0-39.1c0-0.6,0-1.3,0.3-1.6c0.6-3.2,3.5-5.4,6.7-5.4c10.8,0,21.3,0,32.1,0
		c2.5,0,4.8,0,7.3,0c2.9,0,5.4,1.9,6.4,4.5C498.4,82.8,498.4,83.1,498.7,83.7z M448.8,114c0.3,0,0.3-0.3,0.3-0.3
		c2.5-2.2,5.1-4.5,7.6-6.4c1.9-1.6,3.8-1.6,5.7,0c1.6,1.3,3.2,2.5,4.8,3.8c0.3,0.3,0.6,0.3,1,0c4.5-4.5,9.2-9.2,13.7-13.7
		c0.3-0.3,0.6-0.6,1.3-1c1.9-1,4.1-0.6,5.4,1.3c2.2,2.9,4.5,5.7,7,8.6l0.3,0.3c0,0,0,0,0-0.3c0-7.3,0-14.6,0-21.9
		c0-2.2-1.6-3.8-3.8-3.8c-13,0-26.1,0-39.1,0c-0.6,0-1.3,0-1.9,0.3c-1.6,0.6-2.2,1.9-2.2,3.5c0,9.5,0,19.4,0,28.9
		C448.8,113.6,448.8,114,448.8,114z M472,127.6c6.4,0,13,0,19.4,0c2.2,0,3.8-1.6,3.8-3.8c0-3.8,0-8,0-11.8c0-0.3,0-0.3-0.3-0.6
		c-0.6-1-1.3-1.6-1.9-2.5c-2.5-3.2-5.1-6-7.6-9.2c-0.3-0.3-0.6-0.6-1.3-0.6c-0.3,0-0.6,0.3-1,0.6c-4.8,5.1-9.9,9.9-14.6,14.9
		c-1,1-1.6,1-2.5,0c-1.9-1.6-3.8-3.2-6-4.8c-0.6-0.6-1-0.6-1.9,0c-3.2,2.9-6.4,5.4-9.9,8.3c-0.3,0.3-0.3,0.3-0.3,0.6
		c0,1.6,0,3.5,0,5.1c0,0.3,0,0.6,0,1.3c0.6,1.6,1.9,2.9,3.8,2.9C459.3,127.6,465.7,127.6,472,127.6z"/>
	<path class="st4" d="M454.9,91.7c0-4.1,3.5-7.6,7.6-7.6s7.6,3.5,7.6,7.6c0,4.1-3.5,7.6-7.6,7.6C458,99.3,454.9,95.8,454.9,91.7z
		 M458,91.7c0,2.5,1.9,4.5,4.5,4.5s4.5-1.9,4.5-4.5s-1.9-4.5-4.5-4.5C459.9,87.2,458,89.5,458,91.7z"/>
</g>
<circle class="st2" cx="794.1" cy="104.3" r="75.6"/>
<g class="st3">
	<path class="st4" d="M820.5,83.7c0,13.7,0,27.3,0,41v0.3c-0.6,2.5-1.9,4.5-4.5,5.4c-0.3,0-1,0.3-1.3,0.3c-13.7,0-27.3,0-41,0
		c0,0,0,0-0.3,0c-3.5-0.6-5.7-3.2-5.7-7c0-13,0-26.1,0-39.1c0-0.6,0-1.3,0.3-1.6c0.6-3.2,3.5-5.4,6.7-5.4c10.8,0,21.3,0,32.1,0
		c2.5,0,4.8,0,7.3,0c2.9,0,5.4,1.9,6.4,4.5C820.2,82.8,820.2,83.1,820.5,83.7z M770.6,114c0.3,0,0.3-0.3,0.3-0.3
		c2.5-2.2,5.1-4.5,7.6-6.4c1.9-1.6,3.8-1.6,5.7,0c1.6,1.3,3.2,2.5,4.8,3.8c0.3,0.3,0.6,0.3,1,0c4.5-4.5,9.2-9.2,13.7-13.7
		c0.3-0.3,0.6-0.6,1.3-1c1.9-1,4.1-0.6,5.4,1.3c2.2,2.9,4.5,5.7,7,8.6l0.3,0.3c0,0,0,0,0-0.3c0-7.3,0-14.6,0-21.9
		c0-2.2-1.6-3.8-3.8-3.8c-13,0-26.1,0-39.1,0c-0.6,0-1.3,0-1.9,0.3c-1.6,0.6-2.2,1.9-2.2,3.5c0,9.5,0,19.4,0,28.9
		C770.6,113.6,770.6,114,770.6,114z M793.8,127.6c6.4,0,13,0,19.4,0c2.2,0,3.8-1.6,3.8-3.8c0-3.8,0-8,0-11.8c0-0.3,0-0.3-0.3-0.6
		c-0.6-1-1.3-1.6-1.9-2.5c-2.5-3.2-5.1-6-7.6-9.2c-0.3-0.3-0.6-0.6-1.3-0.6c-0.3,0-0.6,0.3-1,0.6c-4.8,5.1-9.9,9.9-14.6,14.9
		c-1,1-1.6,1-2.5,0c-1.9-1.6-3.8-3.2-6-4.8c-0.6-0.6-1-0.6-1.9,0c-3.2,2.9-6.4,5.4-9.9,8.3c-0.3,0.3-0.3,0.3-0.3,0.6
		c0,1.6,0,3.5,0,5.1c0,0.3,0,0.6,0,1.3c0.6,1.6,1.9,2.9,3.8,2.9C781.1,127.6,787.5,127.6,793.8,127.6z"/>
	<path class="st4" d="M776.6,91.7c0-4.1,3.5-7.6,7.6-7.6s7.6,3.5,7.6,7.6c0,4.1-3.5,7.6-7.6,7.6C779.8,99.3,776.6,95.8,776.6,91.7z
		 M779.8,91.7c0,2.5,1.9,4.5,4.5,4.5c2.5,0,4.5-1.9,4.5-4.5s-1.9-4.5-4.5-4.5C781.7,87.2,779.8,89.5,779.8,91.7z"/>
</g>
<circle class="st2" cx="1115.9" cy="104.3" r="75.6"/>
<g class="st3">
	<path class="st4" d="M1142.3,83.7c0,13.7,0,27.3,0,41v0.3c-0.6,2.5-1.9,4.5-4.5,5.4c-0.3,0-1,0.3-1.3,0.3c-13.7,0-27.3,0-41,0
		c0,0,0,0-0.3,0c-3.5-0.6-5.7-3.2-5.7-7c0-13,0-26.1,0-39.1c0-0.6,0-1.3,0.3-1.6c0.6-3.2,3.5-5.4,6.7-5.4c10.8,0,21.3,0,32.1,0
		c2.5,0,4.8,0,7.3,0c2.9,0,5.4,1.9,6.4,4.5C1142,82.8,1142,83.1,1142.3,83.7z M1092.4,114c0.3,0,0.3-0.3,0.3-0.3
		c2.5-2.2,5.1-4.5,7.6-6.4c1.9-1.6,3.8-1.6,5.7,0c1.6,1.3,3.2,2.5,4.8,3.8c0.3,0.3,0.6,0.3,1,0c4.5-4.5,9.2-9.2,13.7-13.7
		c0.3-0.3,0.6-0.6,1.3-1c1.9-1,4.1-0.6,5.4,1.3c2.2,2.9,4.5,5.7,7,8.6l0.3,0.3c0,0,0,0,0-0.3c0-7.3,0-14.6,0-21.9
		c0-2.2-1.6-3.8-3.8-3.8c-13,0-26.1,0-39.1,0c-0.6,0-1.3,0-1.9,0.3c-1.6,0.6-2.2,1.9-2.2,3.5c0,9.5,0,19.4,0,28.9
		C1092.4,113.6,1092.4,114,1092.4,114z M1115.6,127.6c6.4,0,13,0,19.4,0c2.2,0,3.8-1.6,3.8-3.8c0-3.8,0-8,0-11.8
		c0-0.3,0-0.3-0.3-0.6c-0.6-1-1.3-1.6-1.9-2.5c-2.5-3.2-5.1-6-7.6-9.2c-0.3-0.3-0.6-0.6-1.3-0.6c-0.3,0-0.6,0.3-1,0.6
		c-4.8,5.1-9.9,9.9-14.6,14.9c-1,1-1.6,1-2.5,0c-1.9-1.6-3.8-3.2-6-4.8c-0.6-0.6-1-0.6-1.9,0c-3.2,2.9-6.4,5.4-9.9,8.3
		c-0.3,0.3-0.3,0.3-0.3,0.6c0,1.6,0,3.5,0,5.1c0,0.3,0,0.6,0,1.3c0.6,1.6,1.9,2.9,3.8,2.9C1102.9,127.6,1109.3,127.6,1115.6,127.6z"
		/>
	<path class="st4" d="M1098.4,91.7c0-4.1,3.5-7.6,7.6-7.6s7.6,3.5,7.6,7.6c0,4.1-3.5,7.6-7.6,7.6
		C1101.6,99.3,1098.4,95.8,1098.4,91.7z M1101.6,91.7c0,2.5,1.9,4.5,4.5,4.5c2.5,0,4.5-1.9,4.5-4.5s-1.9-4.5-4.5-4.5
		C1103.5,87.2,1101.6,89.5,1101.6,91.7z"/>
</g>
<g>
	<rect x="19.9" y="213.2" class="st4" width="263.5" height="23.9"/>
	<rect x="19.9" y="249.9" class="st4" width="263.5" height="23.9"/>
	<rect x="19.9" y="286.9" class="st4" width="160.8" height="23.9"/>
	<rect x="19.9" y="323.7" class="st4" width="160.8" height="23.9"/>
</g>
<g>
	<rect x="339.8" y="213.2" class="st4" width="263.5" height="23.9"/>
	<rect x="339.8" y="249.9" class="st4" width="263.5" height="23.9"/>
	<rect x="339.8" y="286.9" class="st4" width="160.8" height="23.9"/>
	<rect x="339.8" y="323.7" class="st4" width="160.8" height="23.9"/>
</g>
<g>
	<rect x="659.7" y="213.2" class="st4" width="263.5" height="23.9"/>
	<rect x="659.7" y="249.9" class="st4" width="263.5" height="23.9"/>
	<rect x="659.7" y="286.9" class="st4" width="160.8" height="23.9"/>
	<rect x="659.7" y="323.7" class="st4" width="160.8" height="23.9"/>
</g>
<g>
	<rect x="979.6" y="213.2" class="st4" width="263.5" height="23.9"/>
	<rect x="979.6" y="249.9" class="st4" width="263.5" height="23.9"/>
	<rect x="979.6" y="286.9" class="st4" width="160.8" height="23.9"/>
	<rect x="979.6" y="323.7" class="st4" width="160.8" height="23.9"/>
</g>
<path class="st2" d="M221.1,428.6H32.7c-6.6,0-12-5.4-12-12v-26c0-6.6,5.4-12,12-12h188.4c6.6,0,12,5.4,12,12v26
	C233.1,423.2,227.7,428.6,221.1,428.6z"/>
<path class="st5" d="M540.2,428.6H351.7c-6.6,0-12-5.4-12-12v-26c0-6.6,5.4-12,12-12h188.4c6.6,0,12,5.4,12,12v26
	C552.2,423.2,546.8,428.6,540.2,428.6z"/>
<path class="st2" d="M859.2,428.6H670.8c-6.6,0-12-5.4-12-12v-26c0-6.6,5.4-12,12-12h188.4c6.6,0,12,5.4,12,12v26
	C871.2,423.2,865.8,428.6,859.2,428.6z"/>
<path class="st2" d="M1178.3,428.6H989.8c-6.6,0-12-5.4-12-12v-26c0-6.6,5.4-12,12-12h188.4c6.6,0,12,5.4,12,12v26
	C1190.3,423.2,1184.9,428.6,1178.3,428.6z"/>
</svg>
