<svg xmlns="http://www.w3.org/2000/svg" width="50" height="50" viewBox="0 0 36 36"><g><path d="M33.459,34.389c-.332,0-.655-.145-.876-.41l-6.187-7.408H6.946c-.631,0-1.141-.511-1.141-1.141v-8.406c0-.63.511-1.141,1.141-1.141s1.141.511,1.141,1.141v7.265h18.844c.338,0,.659.15.876.41l4.511,5.402V8.188h-12.109c-.631,0-1.141-.511-1.141-1.141s.511-1.141,1.141-1.141h13.25c.631,0,1.141.511,1.141,1.141v26.2c0,.481-.301.909-.753,1.073-.126.046-.258.069-.389.069Z" fill="#fff"></path></g><path d="M20.397,11.449c-1.523-.376-3.08-.873-4.157-1.951-1.077-1.077-1.574-2.634-1.95-4.156-.061-.247-.283-.421-.538-.421s-.476.174-.538.421c-.376,1.522-.872,3.079-1.95,4.156-1.077,1.077-2.634,1.574-4.156,1.95-.247.061-.421.283-.421.538s.174.476.421.538c1.523.377,3.08.874,4.156,1.95s1.573,2.634,1.951,4.157c.061.247.283.42.538.42h0c.255,0,.476-.174.537-.421.375-1.521.871-3.077,1.95-4.156s2.635-1.575,4.156-1.95c.247-.061.421-.283.421-.538s-.174-.476-.421-.538Z" fill="#fff"></path><path d="M8.691,4.653c-.762-.188-1.54-.437-2.079-.976-.538-.538-.787-1.317-.975-2.079-.031-.124-.141-.21-.269-.21s-.238.087-.269.211c-.188.761-.436,1.54-.975,2.078-.539.538-1.317.787-2.079.975-.124.031-.21.141-.21.269s.087.238.21.269c.762.189,1.54.437,2.078.975s.787,1.317.976,2.079c.031.123.141.21.269.21h0c.127,0,.238-.087.269-.211.187-.761.435-1.539.975-2.078s1.318-.788,2.078-.975c.124-.03.211-.141.211-.269s-.087-.238-.21-.269Z" fill="#fff"></path></svg>
