<svg viewBox="0 0 1024 1025" fill="none" xmlns="http://www.w3.org/2000/svg">
<g clip-path="url(#clip0_55_3177)">
<rect x="0.480469" y="-0.291016" width="1024" height="1024" rx="512" fill="#4343F0"/>
<path d="M579.833 372.77C633.146 353.897 652.89 293.28 650.917 250.541C450.512 155.163 249.13 326.068 281.704 516.859C287.196 551.793 301.754 584.676 323.925 612.227C346.096 639.777 375.105 661.031 408.057 673.867C403.116 678.843 394.231 691.745 390.286 696.72C454.457 710.635 500.858 708.645 541.34 693.735C573.535 682.088 602.122 662.219 624.26 636.103C642.781 615.017 655.98 589.801 662.753 562.566C663.748 559.581 656.835 552.632 667.693 557.59C678.551 562.548 664.725 604.293 660.78 614.227C655.392 626.772 648.779 638.755 641.036 650C619.965 680.686 591.872 705.897 559.094 723.537C508.748 751.367 421.883 758.315 367.574 730.486C313.266 702.656 285.649 750.372 336.99 777.206C618.325 892.47 848.337 542.698 579.833 372.77ZM621.293 598.339C562.062 695.725 444.594 673.867 379.428 607.225C314.261 540.583 321.192 446.254 369.565 379.754C395.699 344.977 429.542 316.735 468.435 297.247C507.328 277.759 550.21 267.556 593.712 267.441C594.835 273.655 595.477 279.947 595.631 286.261C596.626 300.129 594.479 314.043 589.35 326.966C584.221 339.889 576.242 351.488 566.007 360.899L550.208 374.814C626.233 422.459 665.721 525.798 621.293 598.339Z" fill="white"/>
<path d="M365.621 482.086C380.425 337.962 546.265 309.333 607.486 501.83C668.708 694.327 342.91 655.834 365.621 482.086ZM500.86 576.86C632.153 581.8 568.976 447.539 483.088 417.932C397.201 388.326 349.823 576.86 500.86 576.86Z" fill="white"/>
<path d="M765.911 261.246C766.596 258.16 772.482 258.16 773.167 261.246C778.181 283.817 788.868 320.572 808.133 339.838C827.399 359.103 864.153 369.79 886.724 374.803C889.811 375.489 889.811 381.374 886.724 382.06C864.153 387.073 827.399 397.76 808.133 417.026C788.868 436.291 778.181 473.046 773.167 495.617C772.482 498.703 766.596 498.703 765.911 495.617C760.897 473.046 750.21 436.291 730.945 417.026C711.68 397.76 674.925 387.073 652.354 382.06C649.268 381.374 649.268 375.489 652.354 374.803C674.925 369.79 711.68 359.103 730.945 339.838C750.21 320.572 760.897 283.817 765.911 261.246Z" fill="white"/>
<path d="M224.58 572.149C225.01 570.213 228.7 570.213 229.13 572.149C232.274 586.302 238.975 609.35 251.056 621.43C263.136 633.511 286.183 640.212 300.337 643.356C302.272 643.786 302.272 647.476 300.337 647.906C286.183 651.05 263.136 657.751 251.056 669.832C238.975 681.912 232.274 704.96 229.13 719.113C228.7 721.048 225.01 721.048 224.58 719.113C221.436 704.96 214.735 681.912 202.654 669.832C190.574 657.751 167.527 651.05 153.373 647.906C151.438 647.476 151.438 643.786 153.373 643.356C167.527 640.212 190.574 633.511 202.654 621.43C214.735 609.35 221.436 586.302 224.58 572.149Z" fill="white"/>
</g>
<defs>
<clipPath id="clip0_55_3177">
<rect y="0.162109" width="1024" height="1024" rx="512" fill="white"/>
</clipPath>
</defs>
</svg>
