<?xml version="1.0" encoding="utf-8"?>
<!-- Generator: Adobe Illustrator 25.2.0, SVG Export Plug-In . SVG Version: 6.00 Build 0)  -->
<svg version="1.1" id="Layer_1" xmlns="http://www.w3.org/2000/svg" xmlns:xlink="http://www.w3.org/1999/xlink" x="0px" y="0px"
	 viewBox="0 0 555.8 60.4" style="enable-background:new 0 0 555.8 60.4;" xml:space="preserve">
<style type="text/css">
	.st0{fill:#F58333;}
</style>
<g id="XMLID_16_">
	<path id="XMLID_17_" d="M12.3,9.6c6.2,0,10.5,3.4,11.8,9.2h-8c-0.6-1.7-1.8-2.8-3.9-2.8c-2.7,0-4.5,2.1-4.5,6.2s1.8,6.2,4.5,6.2
		c2.1,0,3.3-1,3.9-2.8h8c-1.3,5.7-5.6,9.2-11.8,9.2C5.1,34.8,0,30,0,22.2C0,14.5,5.1,9.6,12.3,9.6z"/>
	<path id="XMLID_19_" d="M37.4,9.6c3.7,0,6.2,1.7,7.6,3.8V9.9h7.5v24.6H45V31c-1.4,2.2-4,3.8-7.6,3.8c-6,0-10.8-4.9-10.8-12.7
		C26.6,14.4,31.4,9.6,37.4,9.6z M39.6,16.1c-2.8,0-5.4,2.1-5.4,6s2.6,6.1,5.4,6.1c2.9,0,5.4-2.2,5.4-6.1
		C45,18.3,42.5,16.1,39.6,16.1z"/>
	<path id="XMLID_22_" d="M65.5,34.5H58V9.9h7.5V14c1.7-2.6,4.4-4.4,7.7-4.4v8h-2.1c-3.6,0-5.6,1.2-5.6,5.5V34.5L65.5,34.5z"/>
	<path id="XMLID_24_" d="M86.2,9.6c3.7,0,6.2,1.7,7.6,3.8V9.9h7.5v24.6h-7.5V31c-1.4,2.2-4,3.8-7.6,3.8c-6,0-10.8-4.9-10.8-12.7
		C75.3,14.4,80.1,9.6,86.2,9.6z M88.4,16.1c-2.8,0-5.4,2.1-5.4,6s2.6,6.1,5.4,6.1c2.9,0,5.4-2.2,5.4-6.1
		C93.7,18.3,91.2,16.1,88.4,16.1z"/>
	<path id="XMLID_27_" d="M112.4,9.9l5.3,17.5L123,9.9h8l-8.7,24.6H113l-8.7-24.6H112.4z"/>
	<path id="XMLID_29_" d="M143.6,9.6c3.7,0,6.2,1.7,7.6,3.8V9.9h7.5v24.6h-7.5V31c-1.4,2.2-4,3.8-7.6,3.8c-6,0-10.8-4.9-10.8-12.7
		C132.7,14.4,137.5,9.6,143.6,9.6z M145.8,16.1c-2.8,0-5.4,2.1-5.4,6s2.6,6.1,5.4,6.1c2.9,0,5.4-2.2,5.4-6.1
		C151.1,18.3,148.6,16.1,145.8,16.1z"/>
	<path id="XMLID_32_" d="M181.1,21.2c0-3.3-1.8-5.2-4.7-5.2s-4.7,1.8-4.7,5.2v13.3h-7.5V9.9h7.5v3.3c1.5-2.1,4.1-3.5,7.4-3.5
		c5.7,0,9.5,3.9,9.5,10.5v14.3h-7.5V21.2z"/>
	<path id="XMLID_34_" d="M203.8,34.8c-6.6,0-11-3.7-11.3-8.4h7.4c0.2,1.7,1.7,2.9,3.8,2.9c1.9,0,2.9-0.9,2.9-2
		c0-4-13.4-1.1-13.4-10.1c0-4.2,3.6-7.6,10-7.6c6.3,0,9.9,3.5,10.3,8.4h-7c-0.2-1.7-1.5-2.8-3.6-2.8c-1.8,0-2.7,0.7-2.7,1.9
		c0,3.9,13.3,1.1,13.4,10.3C213.7,31.6,209.9,34.8,203.8,34.8z"/>
	<path id="XMLID_36_" d="M219.1,16.2h-2.7V9.9h2.7V9.2c0-6.4,4-9.6,11.4-9.2v6.4c-2.9-0.2-3.9,0.7-3.9,3.3v0.2h4v6.2h-4v18.3h-7.5
		V16.2z"/>
	<path id="XMLID_38_" d="M245.3,34.8c-7.2,0-12.7-4.8-12.7-12.6s5.6-12.6,12.8-12.6s12.8,4.8,12.8,12.6S252.6,34.8,245.3,34.8z
		 M245.3,28.3c2.7,0,5.2-2,5.2-6.1c0-4.2-2.5-6.1-5.1-6.1c-2.7,0-5.1,1.9-5.1,6.1C240.3,26.3,242.6,28.3,245.3,28.3z"/>
	<path id="XMLID_41_" d="M269.7,34.5h-7.5V9.9h7.5V14c1.7-2.6,4.4-4.4,7.7-4.4v8h-2.1c-3.6,0-5.6,1.2-5.6,5.5V34.5z"/>
	<path id="XMLID_43_" d="M291,34.8c-6.6,0-11-3.7-11.3-8.4h7.4c0.2,1.7,1.7,2.9,3.8,2.9c1.9,0,2.9-0.9,2.9-2c0-4-13.4-1.1-13.4-10.1
		c0-4.2,3.6-7.6,10-7.6c6.3,0,9.9,3.5,10.3,8.4h-7c-0.2-1.7-1.5-2.8-3.6-2.8c-1.8,0-2.7,0.7-2.7,1.9c0,3.9,13.3,1.1,13.4,10.3
		C301,31.6,297.2,34.8,291,34.8z"/>
	<path id="XMLID_45_" d="M314.9,9.6c3.7,0,6.2,1.7,7.6,3.8V9.9h7.5v24.6h-7.5V31c-1.4,2.2-4,3.8-7.6,3.8c-6,0-10.8-4.9-10.8-12.7
		C304.1,14.4,308.9,9.6,314.9,9.6z M317.1,16.1c-2.8,0-5.4,2.1-5.4,6s2.6,6.1,5.4,6.1c2.9,0,5.4-2.2,5.4-6.1
		C322.5,18.3,320,16.1,317.1,16.1z"/>
	<path id="XMLID_48_" d="M335.5,1.9h7.5v32.6h-7.5V1.9z"/>
	<path id="XMLID_50_" d="M359.3,34.8c-7.2,0-12.4-4.8-12.4-12.6S352,9.6,359.3,9.6c7.2,0,12.2,4.8,12.2,12.2c0,0.7,0,1.5-0.1,2.2
		h-17c0.3,3.2,2.2,4.7,4.7,4.7c2.1,0,3.3-1.1,3.9-2.4h8C369.8,31.1,365.5,34.8,359.3,34.8z M354.5,19.8h9.4c0-2.7-2.1-4.2-4.6-4.2
		S354.9,17.1,354.5,19.8z"/>
	<path id="XMLID_53_" class="st0" d="M379.1,34.8c-2.7,0-4.5-1.8-4.5-4c0-2.3,1.8-4.1,4.5-4.1c2.6,0,4.4,1.8,4.4,4.1
		C383.5,33,381.7,34.8,379.1,34.8z"/>
	<path id="XMLID_55_" class="st0" d="M398.8,9.6c6.2,0,10.5,3.4,11.8,9.2h-8c-0.6-1.7-1.8-2.8-3.9-2.8c-2.7,0-4.5,2.1-4.5,6.2
		s1.8,6.2,4.5,6.2c2.1,0,3.3-1,3.9-2.8h8c-1.3,5.7-5.6,9.2-11.8,9.2c-7.2,0-12.3-4.8-12.3-12.6C386.4,14.5,391.6,9.6,398.8,9.6z"/>
	<path id="XMLID_57_" class="st0" d="M425.7,34.8c-7.2,0-12.7-4.8-12.7-12.6s5.6-12.6,12.8-12.6c7.2,0,12.8,4.8,12.8,12.6
		S433,34.8,425.7,34.8z M425.7,28.3c2.7,0,5.2-2,5.2-6.1c0-4.2-2.5-6.1-5.1-6.1c-2.7,0-5.1,1.9-5.1,6.1
		C420.7,26.3,423,28.3,425.7,28.3z"/>
	<path id="XMLID_60_" class="st0" d="M476.4,21.2c0-3.2-1.8-5-4.7-5s-4.7,1.8-4.7,5v13.3h-7.5V21.2c0-3.2-1.8-5-4.7-5
		s-4.7,1.8-4.7,5v13.3h-7.5V9.9h7.5V13c1.5-2,4-3.3,7.2-3.3c3.7,0,6.7,1.6,8.4,4.6c1.6-2.6,4.7-4.6,8.3-4.6c6.1,0,10,3.9,10,10.5
		v14.3h-7.5L476.4,21.2L476.4,21.2z"/>
	<path id="XMLID_62_" d="M492.7,34.8c-2.7,0-4.5-1.8-4.5-4c0-2.3,1.8-4.1,4.5-4.1c2.6,0,4.4,1.8,4.4,4.1
		C497.2,33,495.3,34.8,492.7,34.8z"/>
	<path id="XMLID_64_" d="M510.9,9.6c3.7,0,6.2,1.7,7.6,3.8V9.9h7.5v24.6h-7.5V31c-1.4,2.2-4,3.8-7.6,3.8c-6,0-10.8-4.9-10.8-12.7
		C500.1,14.4,504.9,9.6,510.9,9.6z M513.1,16.1c-2.8,0-5.4,2.1-5.4,6s2.6,6.1,5.4,6.1c2.9,0,5.4-2.2,5.4-6.1
		C518.5,18.3,516,16.1,513.1,16.1z"/>
	<path id="XMLID_67_" d="M555.7,34.5h-7.5v-3.3c-1.5,2.1-4.1,3.6-7.4,3.6c-5.7,0-9.5-3.9-9.5-10.5V9.9h7.5v13.3
		c0,3.3,1.9,5.2,4.7,5.2c2.9,0,4.8-1.8,4.8-5.2V9.9h7.5L555.7,34.5L555.7,34.5z"/>
</g>
<g>
	<path d="M326.3,45.6c0.6-0.3,1.2-0.4,2-0.4c1.1,0,2,0.4,2.7,1.1c0.7,0.7,1,1.7,1,2.9c0,0.4,0,0.8-0.1,1.2c-0.2,1-0.5,2-1.1,2.8
		c-0.5,0.8-1.2,1.4-1.9,1.8c-0.8,0.4-1.6,0.6-2.4,0.6c-0.7,0-1.3-0.1-1.8-0.4c-0.5-0.3-0.8-0.7-1.1-1.1l-0.3,1.4h-3.1l2.4-13.5h3.1
		l-0.9,4.8C325.2,46.3,325.7,45.9,326.3,45.6z M328.7,49.8c0-0.6-0.2-1.1-0.5-1.4c-0.3-0.3-0.8-0.5-1.3-0.5c-0.6,0-1.2,0.2-1.7,0.7
		c-0.5,0.5-0.8,1.1-1,1.8c0,0.2-0.1,0.4-0.1,0.6c0,0.6,0.2,1.1,0.5,1.4c0.3,0.3,0.8,0.5,1.3,0.5c0.6,0,1.2-0.2,1.7-0.7
		c0.5-0.5,0.9-1.1,1-1.9C328.7,50.2,328.7,50,328.7,49.8z"/>
	<path d="M336.9,45.3l1.2,6.4l3.5-6.4h3.4l-9.1,15h-3.4l3.3-5.2l-2.4-9.9H336.9z"/>
	<path d="M365.7,42.7l-2.3,12.8h-3.1l1.4-7.7l-4.2,7.7h-2.5l-1.5-7.7l-1.4,7.7h-3.1l2.3-12.8h3.7l2,8.9l5.1-8.9H365.7z"/>
	<path d="M367.2,47.6c0.5-0.8,1.2-1.4,1.9-1.8c0.8-0.4,1.6-0.6,2.4-0.6c0.7,0,1.3,0.1,1.8,0.4c0.5,0.3,0.8,0.7,1.1,1.2l0.3-1.4h3.1
		L376,55.5h-3.1l0.3-1.4c-0.4,0.5-0.9,0.9-1.5,1.2c-0.6,0.3-1.3,0.4-2,0.4s-1.4-0.2-1.9-0.5c-0.6-0.3-1-0.8-1.3-1.4
		c-0.3-0.6-0.5-1.3-0.5-2.1c0-0.4,0-0.8,0.1-1.2C366.4,49.4,366.7,48.4,367.2,47.6z M373.9,49.8c0-0.6-0.2-1.1-0.5-1.4
		c-0.3-0.3-0.8-0.5-1.3-0.5c-0.6,0-1.2,0.2-1.7,0.7c-0.5,0.4-0.8,1.1-1,1.8c0,0.2-0.1,0.4-0.1,0.6c0,0.6,0.2,1.1,0.5,1.4
		c0.3,0.3,0.8,0.5,1.3,0.5c0.6,0,1.2-0.2,1.7-0.7c0.5-0.5,0.8-1.1,1-1.8C373.8,50.2,373.9,50,373.9,49.8z"/>
	<path d="M384.7,45.7c0.6-0.3,1.3-0.5,1.9-0.5l-0.6,3.3h-0.9c-0.8,0-1.4,0.2-1.8,0.5c-0.5,0.3-0.7,0.9-0.9,1.8l-0.8,4.7h-3.1
		l1.8-10.2h3.1l-0.3,1.8C383.5,46.6,384.1,46.1,384.7,45.7z"/>
	<path d="M393.2,50.4l3.4,5.1h-3.9l-2.4-4.3l-0.7,4.3h-3.1l2.4-13.5h3.1l-1.3,7.5l3.8-4.1h3.9L393.2,50.4z"/>
	<path d="M407.5,46.2c0.8,0.7,1.2,1.7,1.2,2.9c0,0.4,0,0.8-0.1,1.1c0,0.3-0.1,0.6-0.2,0.9h-7.1c0,0.1,0,0.2,0,0.3
		c0,0.5,0.1,0.9,0.4,1.2c0.3,0.3,0.7,0.4,1.2,0.4c0.8,0,1.4-0.3,1.8-1h3.3c-0.4,1-1.2,1.9-2.1,2.5c-1,0.7-2.1,1-3.3,1
		c-1.3,0-2.4-0.4-3.2-1.1c-0.8-0.7-1.2-1.7-1.2-3c0-0.4,0-0.8,0.1-1.2c0.2-1.1,0.6-2,1.1-2.8c0.6-0.8,1.3-1.4,2.1-1.8
		c0.9-0.4,1.8-0.6,2.8-0.6C405.6,45.2,406.7,45.5,407.5,46.2z M405.5,49.2c0-0.5-0.2-0.9-0.5-1.1c-0.3-0.3-0.7-0.4-1.2-0.4
		c-0.5,0-1,0.2-1.4,0.5c-0.4,0.3-0.7,0.8-0.9,1.4h3.9C405.5,49.4,405.5,49.3,405.5,49.2z"/>
	<path d="M413.7,52c0,0.1,0,0.1,0,0.2c0,0.2,0.1,0.4,0.2,0.5c0.1,0.1,0.3,0.1,0.6,0.1h1.1l-0.5,2.7h-1.6c-2,0-3.1-0.9-3.1-2.6
		c0-0.3,0-0.6,0.1-1l0.7-4.1H410l0.5-2.6h1.2l0.4-2.5h3.1l-0.4,2.5h2l-0.5,2.6h-2L413.7,52z"/>
	<path d="M423.2,45.6c0.6-0.3,1.2-0.4,2-0.4c1.1,0,2,0.4,2.7,1.1c0.7,0.7,1,1.7,1,2.9c0,0.4,0,0.8-0.1,1.2c-0.2,1-0.5,2-1.1,2.8
		c-0.5,0.8-1.2,1.4-1.9,1.8c-0.8,0.4-1.6,0.6-2.4,0.6c-0.7,0-1.3-0.1-1.8-0.4c-0.5-0.3-0.8-0.7-1.1-1.1l-1.1,6.3h-3.1l2.7-15.1h3.1
		l-0.3,1.4C422.1,46.3,422.6,45.9,423.2,45.6z M425.6,49.8c0-0.6-0.2-1.1-0.5-1.4c-0.3-0.3-0.8-0.5-1.3-0.5c-0.6,0-1.2,0.2-1.7,0.7
		c-0.5,0.5-0.8,1.1-1,1.8c0,0.2-0.1,0.4-0.1,0.6c0,0.6,0.2,1.1,0.5,1.4c0.3,0.3,0.8,0.5,1.3,0.5c0.6,0,1.2-0.2,1.7-0.7
		c0.5-0.5,0.9-1.1,1-1.9C425.6,50.2,425.6,50,425.6,49.8z"/>
	<path d="M435.1,42l-2.4,13.5h-3.1L432,42H435.1z"/>
	<path d="M436.6,47.6c0.5-0.8,1.2-1.4,1.9-1.8c0.8-0.4,1.6-0.6,2.4-0.6c0.7,0,1.3,0.1,1.8,0.4c0.5,0.3,0.8,0.7,1.1,1.2l0.3-1.4h3.1
		l-1.8,10.2h-3.1l0.3-1.4c-0.4,0.5-0.9,0.9-1.5,1.2c-0.6,0.3-1.3,0.4-2,0.4s-1.4-0.2-1.9-0.5c-0.6-0.3-1-0.8-1.3-1.4
		c-0.3-0.6-0.5-1.3-0.5-2.1c0-0.4,0-0.8,0.1-1.2C435.7,49.4,436,48.4,436.6,47.6z M443.2,49.8c0-0.6-0.2-1.1-0.5-1.4
		c-0.3-0.3-0.8-0.5-1.3-0.5c-0.6,0-1.2,0.2-1.7,0.7c-0.5,0.4-0.8,1.1-1,1.8c0,0.2-0.1,0.4-0.1,0.6c0,0.6,0.2,1.1,0.5,1.4
		c0.3,0.3,0.8,0.5,1.3,0.5c0.6,0,1.2-0.2,1.7-0.7c0.5-0.5,0.8-1.1,1-1.8C443.2,50.2,443.2,50,443.2,49.8z"/>
	<path d="M449.2,47.6c0.6-0.8,1.3-1.4,2.1-1.8c0.8-0.4,1.8-0.6,2.8-0.6c1.3,0,2.3,0.3,3,1c0.7,0.7,1.1,1.6,1.2,2.8H455
		c-0.1-0.8-0.6-1.2-1.4-1.2c-0.6,0-1.1,0.2-1.5,0.7c-0.4,0.4-0.7,1.1-0.8,1.9c0,0.3-0.1,0.5-0.1,0.8c0,0.6,0.1,1,0.4,1.3
		c0.3,0.3,0.6,0.5,1.1,0.5c0.8,0,1.4-0.4,1.8-1.2h3.3c-0.5,1.2-1.2,2.1-2.2,2.8c-1,0.7-2.1,1-3.4,1c-1.3,0-2.4-0.4-3.1-1.1
		c-0.8-0.7-1.2-1.7-1.2-3c0-0.4,0-0.8,0.1-1.2C448.3,49.4,448.6,48.4,449.2,47.6z"/>
	<path d="M468.5,46.2c0.8,0.7,1.2,1.7,1.2,2.9c0,0.4,0,0.8-0.1,1.1c0,0.3-0.1,0.6-0.2,0.9h-7.1c0,0.1,0,0.2,0,0.3
		c0,0.5,0.1,0.9,0.4,1.2c0.3,0.3,0.7,0.4,1.2,0.4c0.8,0,1.4-0.3,1.8-1h3.3c-0.4,1-1.2,1.9-2.1,2.5c-1,0.7-2.1,1-3.3,1
		c-1.3,0-2.4-0.4-3.2-1.1c-0.8-0.7-1.2-1.7-1.2-3c0-0.4,0-0.8,0.1-1.2c0.2-1.1,0.6-2,1.1-2.8c0.6-0.8,1.3-1.4,2.1-1.8
		c0.9-0.4,1.8-0.6,2.8-0.6C466.7,45.2,467.8,45.5,468.5,46.2z M466.6,49.2c0-0.5-0.2-0.9-0.5-1.1c-0.3-0.3-0.7-0.4-1.2-0.4
		c-0.5,0-1,0.2-1.4,0.5c-0.4,0.3-0.7,0.8-0.9,1.4h3.9C466.6,49.4,466.6,49.3,466.6,49.2z"/>
	<path d="M486.4,55.5h-3.1l-3.8-7.9l-1.4,7.9h-3.1l2.3-12.8h3.1l3.8,8l1.4-8h3.1L486.4,55.5z"/>
	<path d="M498.3,46.2c0.8,0.7,1.2,1.7,1.2,2.9c0,0.4,0,0.8-0.1,1.1c0,0.3-0.1,0.6-0.2,0.9h-7.1c0,0.1,0,0.2,0,0.3
		c0,0.5,0.1,0.9,0.4,1.2c0.3,0.3,0.7,0.4,1.2,0.4c0.8,0,1.4-0.3,1.8-1h3.3c-0.4,1-1.2,1.9-2.1,2.5c-1,0.7-2.1,1-3.3,1
		c-1.3,0-2.4-0.4-3.2-1.1c-0.8-0.7-1.2-1.7-1.2-3c0-0.4,0-0.8,0.1-1.2c0.2-1.1,0.6-2,1.1-2.8c0.6-0.8,1.3-1.4,2.1-1.8
		c0.9-0.4,1.8-0.6,2.8-0.6C496.5,45.2,497.5,45.5,498.3,46.2z M496.4,49.2c0-0.5-0.2-0.9-0.5-1.1c-0.3-0.3-0.7-0.4-1.2-0.4
		c-0.5,0-1,0.2-1.4,0.5c-0.4,0.3-0.7,0.8-0.9,1.4h3.9C496.3,49.4,496.4,49.3,496.4,49.2z"/>
	<path d="M504.5,52c0,0.1,0,0.1,0,0.2c0,0.2,0.1,0.4,0.2,0.5c0.1,0.1,0.3,0.1,0.6,0.1h1.1l-0.5,2.7h-1.6c-2,0-3.1-0.9-3.1-2.6
		c0-0.3,0-0.6,0.1-1l0.7-4.1h-1.2l0.5-2.6h1.2l0.4-2.5h3.1l-0.4,2.5h2l-0.5,2.6h-2L504.5,52z"/>
	<path d="M524.3,45.3l-4.6,10.2h-3.5l-0.4-6.6l-2.8,6.6h-3.4l-1-10.2h3.1l0.1,7.3l3-7.3h3.3l0.5,7.3l2.7-7.3H524.3z"/>
	<path d="M526.2,55.1c-0.7-0.4-1.2-0.9-1.6-1.5c-0.4-0.6-0.6-1.4-0.6-2.2c0-1.2,0.3-2.2,0.8-3.2c0.5-1,1.3-1.7,2.3-2.2
		c1-0.5,2-0.8,3.2-0.8c0.9,0,1.7,0.2,2.3,0.5c0.7,0.4,1.2,0.9,1.6,1.5c0.4,0.6,0.6,1.4,0.6,2.2c0,1.2-0.3,2.2-0.8,3.2
		c-0.6,0.9-1.3,1.7-2.3,2.2c-1,0.5-2,0.8-3.2,0.8C527.7,55.7,526.9,55.5,526.2,55.1z M530.4,52.5c0.4-0.3,0.7-0.7,1-1.2
		c0.2-0.5,0.3-1,0.3-1.5c0-0.6-0.2-1.1-0.5-1.4c-0.3-0.3-0.7-0.5-1.2-0.5c-0.5,0-1,0.2-1.4,0.5c-0.4,0.3-0.7,0.7-0.9,1.2
		c-0.2,0.5-0.3,1-0.3,1.6c0,0.6,0.2,1.1,0.5,1.4c0.3,0.3,0.7,0.5,1.2,0.5C529.5,53,530,52.8,530.4,52.5z"/>
	<path d="M541.9,45.7c0.6-0.3,1.3-0.5,1.9-0.5l-0.6,3.3h-0.9c-0.8,0-1.4,0.2-1.8,0.5c-0.5,0.3-0.7,0.9-0.9,1.8l-0.8,4.7h-3.1
		l1.8-10.2h3.1l-0.3,1.8C540.8,46.6,541.3,46.1,541.9,45.7z"/>
	<path d="M550.5,50.4l3.4,5.1H550l-2.4-4.3l-0.7,4.3h-3.1l2.4-13.5h3.1l-1.3,7.5l3.8-4.1h3.9L550.5,50.4z"/>
</g>
</svg>
